<svg width="317" height="640" viewBox="0 0 317 640" fill="none" xmlns="http://www.w3.org/2000/svg">
<path fill-rule="evenodd" clip-rule="evenodd" d="M2.22942 57.9976H6.49424V62.1737H2.18745C2.16476 65.639 2.16476 69.4301 2.16476 73.6018V93.4951H1.73181C1.12562 93.4951 0.822523 93.4951 0.590989 93.613C0.387326 93.7168 0.221744 93.8824 0.117972 94.0861C0 94.3176 0 94.6207 0 95.2269V114.732C0 115.338 0 115.642 0.117972 115.873C0.221744 116.077 0.387326 116.242 0.590989 116.346C0.822523 116.464 1.12562 116.464 1.73181 116.464H2.16476V138.041H1.73181C1.12562 138.041 0.822523 138.041 0.590989 138.159C0.387326 138.263 0.221744 138.428 0.117972 138.632C0 138.863 0 139.167 0 139.773V181.551C0 182.157 0 182.46 0.117972 182.692C0.221744 182.896 0.387326 183.061 0.590989 183.165C0.822523 183.283 1.12562 183.283 1.73181 183.283H2.16476V197.204H1.73181C1.12562 197.204 0.822523 197.204 0.590989 197.321C0.387326 197.425 0.221744 197.591 0.117972 197.794C0 198.026 0 198.329 0 198.935V240.018C0 240.624 0 240.927 0.117972 241.158C0.221744 241.362 0.387326 241.528 0.590989 241.631C0.822523 241.749 1.12562 241.749 1.73181 241.749H2.16476L2.16472 543.826H6.49424L6.49424 69.4454C6.49424 51.8222 6.49424 43.0106 8.86796 35.8956C13.4656 22.1149 24.2796 11.3008 38.0604 6.70324C45.1753 4.32952 53.9869 4.32952 71.6101 4.32952H244.444C262.068 4.32952 270.879 4.32952 277.994 6.70324C291.775 11.3008 302.589 22.1149 307.187 35.8956C309.56 43.0106 309.56 51.8222 309.56 69.4454V543.826H313.89L313.89 224.349H314.323C314.929 224.349 315.232 224.349 315.464 224.231C315.667 224.127 315.833 223.961 315.937 223.758C316.055 223.526 316.055 223.223 316.055 222.617V154.389C316.055 153.783 316.055 153.48 315.937 153.249C315.833 153.045 315.667 152.879 315.464 152.776C315.232 152.658 314.929 152.658 314.323 152.658H313.89V73.6018C313.89 69.4301 313.89 65.639 313.867 62.1737H309.56V57.9976H313.825C313.64 44.9862 312.924 36.975 310.155 30.2904C305.175 18.2674 295.622 8.71516 283.599 3.73507C274.582 0 263.151 0 240.288 0H75.7665C52.9038 0 41.4724 0 32.4551 3.73507C20.4322 8.71516 10.8799 18.2674 5.89982 30.2904C3.13099 36.975 2.41471 44.9862 2.22942 57.9976ZM313.89 548.003H309.56V569.88C309.56 587.503 309.56 596.315 307.187 603.43C302.589 617.21 291.775 628.024 277.994 632.622C270.879 634.996 262.068 634.996 244.444 634.996H71.6101C53.9869 634.996 45.1753 634.996 38.0604 632.622C24.2796 628.024 13.4656 617.21 8.86796 603.43C6.49424 596.315 6.49424 587.503 6.49424 569.88L6.49424 548.003H2.16472L2.16476 565.723C2.16476 588.586 2.16476 600.017 5.89982 609.035C10.8799 621.058 20.4322 630.61 32.4551 635.59C41.4724 639.325 52.9038 639.325 75.7666 639.325H240.288C263.151 639.325 274.582 639.325 283.599 635.59C295.622 630.61 305.175 621.058 310.155 609.035C313.89 600.017 313.89 588.586 313.89 565.723L313.89 548.003Z" fill="#757575"/>
<mask id="mask0_603_588" style="mask-type:alpha" maskUnits="userSpaceOnUse" x="77" y="15" width="162" height="24">
<path d="M77.9313 15.1533H238.123C235.732 15.1533 233.794 17.0917 233.794 19.4828V20.1731C233.794 22.4809 233.794 23.6349 233.672 24.6043C232.783 31.669 227.219 37.2328 220.154 38.1221C219.185 38.2441 218.031 38.2441 215.723 38.2441H100.332C98.0239 38.2441 96.87 38.2441 95.9006 38.1221C88.8359 37.2328 83.272 31.669 82.3828 24.6043C82.2608 23.6349 82.2608 22.4809 82.2608 20.173V19.4828C82.2608 17.0917 80.3224 15.1533 77.9313 15.1533Z" fill="white"/>
</mask>
<g mask="url(#mask0_603_588)">
</g>
<rect x="11" y="10" width="294.42" height="618.02" rx="34.6361" fill="#F8F8F8"/>
<rect x="56" y="321.839" width="16" height="105.677" fill="#CBAA5C"/>
<line x1="64.5" y1="295" x2="64.5" y2="331.903" stroke="#CBAA5C"/>
<line x1="64.5" y1="414.097" x2="64.5" y2="451" stroke="#CBAA5C"/>
<rect x="83" y="366" width="16" height="63" fill="#3AB67A" fill-opacity="0.37"/>
<line x1="91.5" y1="350" x2="91.5" y2="372" stroke="#CBAA5C"/>
<line x1="91.5" y1="421" x2="91.5" y2="443" stroke="#CBAA5C"/>
<rect x="137" y="197" width="16" height="63" fill="#CBAA5C"/>
<line x1="145.5" y1="181" x2="145.5" y2="203" stroke="#CBAA5C"/>
<line x1="145.5" y1="252" x2="145.5" y2="274" stroke="#CBAA5C"/>
<rect x="164" y="258" width="16" height="63" fill="#CBAA5C"/>
<line x1="172.5" y1="242" x2="172.5" y2="264" stroke="#CBAA5C"/>
<line x1="172.5" y1="313" x2="172.5" y2="335" stroke="#CBAA5C"/>
<rect x="245" y="168" width="16" height="63" fill="#CBAA5C"/>
<line x1="253.5" y1="152" x2="253.5" y2="174" stroke="#CBAA5C"/>
<line x1="253.5" y1="223" x2="253.5" y2="245" stroke="#CBAA5C"/>
<rect x="272" y="229" width="16" height="63" fill="#3AB67A" fill-opacity="0.37"/>
<line x1="280.5" y1="213" x2="280.5" y2="235" stroke="#CBAA5C"/>
<line x1="280.5" y1="284" x2="280.5" y2="306" stroke="#CBAA5C"/>
<rect x="110" y="268.839" width="16" height="105.677" fill="#CBAA5C"/>
<line x1="118.5" y1="242" x2="118.5" y2="278.903" stroke="#CBAA5C"/>
<line x1="118.5" y1="361.097" x2="118.5" y2="398" stroke="#CBAA5C"/>
<rect x="191" y="200.839" width="16" height="105.677" fill="#3AB67A" fill-opacity="0.37"/>
<line x1="199.5" y1="174" x2="199.5" y2="210.903" stroke="#CBAA5C"/>
<line x1="199.5" y1="293.097" x2="199.5" y2="330" stroke="#CBAA5C"/>
<rect x="218" y="161.839" width="16" height="105.677" fill="#CBAA5C"/>
<line x1="226.5" y1="135" x2="226.5" y2="171.903" stroke="#CBAA5C"/>
<line x1="226.5" y1="254.097" x2="226.5" y2="291" stroke="#CBAA5C"/>
</svg>
