<svg width="412" height="63" viewBox="0 0 412 63" fill="none" xmlns="http://www.w3.org/2000/svg">
<path d="M0.205016 26.584C0.205016 22.5627 1.07502 18.986 2.81502 15.854C4.55502 12.6833 6.97168 10.228 10.065 8.488C13.197 6.70933 16.735 5.82 20.679 5.82C25.5124 5.82 29.6497 7.096 33.091 9.648C36.5323 12.2 38.833 15.68 39.993 20.088H29.089C28.277 18.3867 27.117 17.0913 25.609 16.202C24.1397 15.3127 22.4577 14.868 20.563 14.868C17.5083 14.868 15.0337 15.9313 13.139 18.058C11.2443 20.1847 10.297 23.0267 10.297 26.584C10.297 30.1413 11.2443 32.9833 13.139 35.11C15.0337 37.2367 17.5083 38.3 20.563 38.3C22.4577 38.3 24.1397 37.8553 25.609 36.966C27.117 36.0767 28.277 34.7813 29.089 33.08H39.993C38.833 37.488 36.5323 40.968 33.091 43.52C29.6497 46.0333 25.5124 47.29 20.679 47.29C16.735 47.29 13.197 46.42 10.065 44.68C6.97168 42.9013 4.55502 40.446 2.81502 37.314C1.07502 34.182 0.205016 30.6053 0.205016 26.584ZM60.7987 47.464C57.628 47.464 54.7667 46.7873 52.2147 45.434C49.7014 44.0807 47.71 42.1473 46.2407 39.634C44.81 37.1207 44.0947 34.182 44.0947 30.818C44.0947 27.4927 44.8294 24.5733 46.2987 22.06C47.768 19.508 49.7787 17.5553 52.3307 16.202C54.8827 14.8487 57.744 14.172 60.9147 14.172C64.0854 14.172 66.9467 14.8487 69.4987 16.202C72.0507 17.5553 74.0614 19.508 75.5307 22.06C77 24.5733 77.7347 27.4927 77.7347 30.818C77.7347 34.1433 76.9807 37.082 75.4727 39.634C74.0034 42.1473 71.9734 44.0807 69.3827 45.434C66.8307 46.7873 63.9694 47.464 60.7987 47.464ZM60.7987 38.88C62.6934 38.88 64.298 38.184 65.6127 36.792C66.966 35.4 67.6427 33.4087 67.6427 30.818C67.6427 28.2273 66.9854 26.236 65.6707 24.844C64.3947 23.452 62.8094 22.756 60.9147 22.756C58.9814 22.756 57.3767 23.452 56.1007 24.844C54.8247 26.1973 54.1867 28.1887 54.1867 30.818C54.1867 33.4087 54.8054 35.4 56.0427 36.792C57.3187 38.184 58.904 38.88 60.7987 38.88ZM124.292 14.288C128.314 14.288 131.504 15.506 133.862 17.942C136.26 20.378 137.458 23.7613 137.458 28.092V47H127.598V29.426C127.598 27.338 127.038 25.7333 125.916 24.612C124.834 23.452 123.326 22.872 121.392 22.872C119.459 22.872 117.932 23.452 116.81 24.612C115.728 25.7333 115.186 27.338 115.186 29.426V47H105.326V29.426C105.326 27.338 104.766 25.7333 103.644 24.612C102.562 23.452 101.054 22.872 99.1204 22.872C97.1871 22.872 95.6597 23.452 94.5384 24.612C93.4557 25.7333 92.9144 27.338 92.9144 29.426V47H82.9964V14.636H92.9144V18.696C93.9197 17.3427 95.2344 16.2793 96.8584 15.506C98.4824 14.694 100.319 14.288 102.368 14.288C104.804 14.288 106.97 14.81 108.864 15.854C110.798 16.898 112.306 18.3867 113.388 20.32C114.51 18.5413 116.037 17.0913 117.97 15.97C119.904 14.8487 122.011 14.288 124.292 14.288ZM149.383 11.272C147.643 11.272 146.212 10.7693 145.091 9.764C144.008 8.72 143.467 7.444 143.467 5.936C143.467 4.38933 144.008 3.11333 145.091 2.108C146.212 1.064 147.643 0.541997 149.383 0.541997C151.084 0.541997 152.476 1.064 153.559 2.108C154.68 3.11333 155.241 4.38933 155.241 5.936C155.241 7.444 154.68 8.72 153.559 9.764C152.476 10.7693 151.084 11.272 149.383 11.272ZM154.313 14.636V47H144.395V14.636H154.313ZM181.22 14.288C185.01 14.288 188.026 15.5253 190.268 18C192.55 20.436 193.69 23.8 193.69 28.092V47H183.83V29.426C183.83 27.2607 183.27 25.5787 182.148 24.38C181.027 23.1813 179.519 22.582 177.624 22.582C175.73 22.582 174.222 23.1813 173.1 24.38C171.979 25.5787 171.418 27.2607 171.418 29.426V47H161.5V14.636H171.418V18.928C172.424 17.4973 173.777 16.376 175.478 15.564C177.18 14.7133 179.094 14.288 181.22 14.288ZM212.878 14.172C215.16 14.172 217.151 14.636 218.852 15.564C220.592 16.492 221.926 17.71 222.854 19.218V14.636H232.772V46.942C232.772 49.9193 232.173 52.6067 230.974 55.004C229.814 57.44 228.016 59.3733 225.58 60.804C223.183 62.2347 220.186 62.95 216.59 62.95C211.796 62.95 207.91 61.8093 204.932 59.528C201.955 57.2853 200.254 54.2307 199.828 50.364H209.63C209.94 51.6013 210.674 52.568 211.834 53.264C212.994 53.9987 214.425 54.366 216.126 54.366C218.176 54.366 219.8 53.7667 220.998 52.568C222.236 51.408 222.854 49.5327 222.854 46.942V42.36C221.888 43.868 220.554 45.1053 218.852 46.072C217.151 47 215.16 47.464 212.878 47.464C210.21 47.464 207.794 46.7873 205.628 45.434C203.463 44.042 201.742 42.0893 200.466 39.576C199.229 37.024 198.61 34.0853 198.61 30.76C198.61 27.4347 199.229 24.5153 200.466 22.002C201.742 19.4887 203.463 17.5553 205.628 16.202C207.794 14.8487 210.21 14.172 212.878 14.172ZM222.854 30.818C222.854 28.3433 222.158 26.3907 220.766 24.96C219.413 23.5293 217.75 22.814 215.778 22.814C213.806 22.814 212.124 23.5293 210.732 24.96C209.379 26.352 208.702 28.2853 208.702 30.76C208.702 33.2347 209.379 35.2067 210.732 36.676C212.124 38.1067 213.806 38.822 215.778 38.822C217.75 38.822 219.413 38.1067 220.766 36.676C222.158 35.2453 222.854 33.2927 222.854 30.818ZM266.971 47.406C263.993 47.406 261.325 46.9227 258.967 45.956C256.608 44.9893 254.713 43.5587 253.283 41.664C251.891 39.7693 251.156 37.488 251.079 34.82H261.635C261.789 36.328 262.311 37.488 263.201 38.3C264.09 39.0733 265.25 39.46 266.681 39.46C268.15 39.46 269.31 39.1313 270.161 38.474C271.011 37.778 271.437 36.8307 271.437 35.632C271.437 34.6267 271.089 33.7953 270.393 33.138C269.735 32.4807 268.904 31.9393 267.899 31.514C266.932 31.0887 265.54 30.6053 263.723 30.064C261.093 29.252 258.947 28.44 257.285 27.628C255.622 26.816 254.191 25.6173 252.993 24.032C251.794 22.4467 251.195 20.378 251.195 17.826C251.195 14.0367 252.567 11.0787 255.313 8.952C258.058 6.78667 261.635 5.704 266.043 5.704C270.528 5.704 274.143 6.78667 276.889 8.952C279.634 11.0787 281.103 14.056 281.297 17.884H270.567C270.489 16.5693 270.006 15.5447 269.117 14.81C268.227 14.0367 267.087 13.65 265.695 13.65C264.496 13.65 263.529 13.9787 262.795 14.636C262.06 15.2547 261.693 16.1633 261.693 17.362C261.693 18.6767 262.311 19.7013 263.549 20.436C264.786 21.1707 266.719 21.9633 269.349 22.814C271.978 23.7033 274.105 24.554 275.729 25.366C277.391 26.178 278.822 27.3573 280.021 28.904C281.219 30.4507 281.819 32.442 281.819 34.878C281.819 37.198 281.219 39.3053 280.021 41.2C278.861 43.0947 277.159 44.6027 274.917 45.724C272.674 46.8453 270.025 47.406 266.971 47.406ZM302.654 47.464C299.484 47.464 296.622 46.7873 294.07 45.434C291.557 44.0807 289.566 42.1473 288.096 39.634C286.666 37.1207 285.95 34.182 285.95 30.818C285.95 27.4927 286.685 24.5733 288.154 22.06C289.624 19.508 291.634 17.5553 294.186 16.202C296.738 14.8487 299.6 14.172 302.77 14.172C305.941 14.172 308.802 14.8487 311.354 16.202C313.906 17.5553 315.917 19.508 317.386 22.06C318.856 24.5733 319.59 27.4927 319.59 30.818C319.59 34.1433 318.836 37.082 317.328 39.634C315.859 42.1473 313.829 44.0807 311.238 45.434C308.686 46.7873 305.825 47.464 302.654 47.464ZM302.654 38.88C304.549 38.88 306.154 38.184 307.468 36.792C308.822 35.4 309.498 33.4087 309.498 30.818C309.498 28.2273 308.841 26.236 307.526 24.844C306.25 23.452 304.665 22.756 302.77 22.756C300.837 22.756 299.232 23.452 297.956 24.844C296.68 26.1973 296.042 28.1887 296.042 30.818C296.042 33.4087 296.661 35.4 297.898 36.792C299.174 38.184 300.76 38.88 302.654 38.88ZM339.584 47.464C336.413 47.464 333.552 46.7873 331 45.434C328.487 44.0807 326.495 42.1473 325.026 39.634C323.595 37.1207 322.88 34.182 322.88 30.818C322.88 27.4927 323.615 24.5733 325.084 22.06C326.553 19.508 328.564 17.5553 331.116 16.202C333.668 14.8487 336.529 14.172 339.7 14.172C342.871 14.172 345.732 14.8487 348.284 16.202C350.836 17.5553 352.847 19.508 354.316 22.06C355.785 24.5733 356.52 27.4927 356.52 30.818C356.52 34.1433 355.766 37.082 354.258 39.634C352.789 42.1473 350.759 44.0807 348.168 45.434C345.616 46.7873 342.755 47.464 339.584 47.464ZM339.584 38.88C341.479 38.88 343.083 38.184 344.398 36.792C345.751 35.4 346.428 33.4087 346.428 30.818C346.428 28.2273 345.771 26.236 344.456 24.844C343.18 23.452 341.595 22.756 339.7 22.756C337.767 22.756 336.162 23.452 334.886 24.844C333.61 26.1973 332.972 28.1887 332.972 30.818C332.972 33.4087 333.591 35.4 334.828 36.792C336.104 38.184 337.689 38.88 339.584 38.88ZM381.502 14.288C385.291 14.288 388.307 15.5253 390.55 18C392.831 20.436 393.972 23.8 393.972 28.092V47H384.112V29.426C384.112 27.2607 383.551 25.5787 382.43 24.38C381.308 23.1813 379.8 22.582 377.906 22.582C376.011 22.582 374.503 23.1813 373.382 24.38C372.26 25.5787 371.7 27.2607 371.7 29.426V47H361.782V14.636H371.7V18.928C372.705 17.4973 374.058 16.376 375.76 15.564C377.461 14.7133 379.375 14.288 381.502 14.288ZM405.504 47.464C403.764 47.464 402.333 46.9613 401.212 45.956C400.129 44.912 399.588 43.636 399.588 42.128C399.588 40.5813 400.129 39.286 401.212 38.242C402.333 37.198 403.764 36.676 405.504 36.676C407.205 36.676 408.597 37.198 409.68 38.242C410.801 39.286 411.362 40.5813 411.362 42.128C411.362 43.636 410.801 44.912 409.68 45.956C408.597 46.9613 407.205 47.464 405.504 47.464Z" fill="#494949"/>
</svg>
