<svg width="703" height="32" viewBox="0 0 703 32" fill="none" xmlns="http://www.w3.org/2000/svg">
<path d="M6.86898 4.49158L9.10672 6.80309L6.86898 9.16378L4.55746 6.80309L6.86898 4.49158ZM7.43456 26.2788C6.30339 26.2788 5.27879 26.0739 4.36074 25.664C3.44269 25.2542 2.69678 24.7132 2.123 24.0411C1.54922 23.3853 1.082 22.6148 0.721339 21.7296C0.377071 20.8607 0.180346 19.959 0.131165 19.0246C0.0819843 18.1065 0.155756 17.1885 0.35248 16.2704C0.565598 15.336 0.901669 14.4835 1.36069 13.713L3.96729 12.7048C3.4263 13.5081 3.04924 14.3606 2.83613 15.2622C2.6394 16.1639 2.61481 17.0164 2.76235 17.8197C2.9099 18.6066 3.18039 19.3279 3.57384 19.9836C3.98368 20.6394 4.52468 21.1558 5.19682 21.5328C5.86896 21.9263 6.60668 22.1312 7.40997 22.1476C8.70507 22.164 9.76246 21.8689 10.5821 21.2623C11.4018 20.6558 11.9264 19.8443 12.1559 18.8279C12.4019 17.8115 12.3445 16.6065 11.9838 15.2131C11.6231 13.8196 10.9674 12.3769 10.0166 10.8851L13.3855 9.45887C14.3199 11.2458 14.9757 12.9917 15.3527 14.6967C15.7298 16.4016 15.8117 17.9426 15.5986 19.3197C15.4019 20.6967 14.9675 21.9099 14.2953 22.9591C13.6396 24.0247 12.7215 24.8444 11.5412 25.4181C10.3608 25.9919 8.99196 26.2788 7.43456 26.2788ZM17.8742 19.0984V2.54892L20.9972 3.08991V15.5573H25.1284C25.5218 15.5573 25.7923 15.8524 25.9399 16.4426C26.1038 17.0328 26.1038 17.6229 25.9399 18.2131C25.7923 18.8033 25.5218 19.0984 25.1284 19.0984H17.8742ZM29.0929 3.48336L31.3306 5.79487L29.0929 8.15557L26.7814 5.79487L29.0929 3.48336ZM34.1094 3.48336L36.3471 5.79487L34.1094 8.15557L31.7978 5.79487L34.1094 3.48336ZM24.2731 19.0984C23.8961 19.0984 23.6338 18.8033 23.4862 18.2131C23.3223 17.6229 23.3223 17.0328 23.4862 16.4426C23.6338 15.8524 23.8961 15.5573 24.2731 15.5573H29.9535V10.1228L33.052 10.6884V15.5573H38.1176C38.4947 15.5901 38.757 15.8934 38.9045 16.4672C39.0521 17.041 39.0521 17.6147 38.9045 18.1885C38.757 18.7623 38.4947 19.0656 38.1176 19.0984H24.2731ZM37.0823 19.0984C36.6889 19.0984 36.4184 18.8033 36.2708 18.2131C36.1069 17.6229 36.1069 17.0328 36.2708 16.4426C36.4184 15.8524 36.6889 15.5573 37.0823 15.5573H40.8938L39.8856 10.3933L43.525 9.38509L44.189 15.5573H47.0169L46.0087 10.1474L49.6481 9.13919L50.2628 15.5573H53.0662L52.058 9.9015L55.6728 8.89328L56.3121 15.6557L55.9187 19.0984H37.0823ZM59.9858 19.541C59.0185 19.5902 58.5349 19.2787 58.5349 18.6066V14.3032H59.5431C59.5431 14.6639 59.7153 14.9999 60.0595 15.3114C60.4202 15.6229 60.7809 15.7704 61.1415 15.754L66.4285 15.5327L64.117 9.33591L67.3383 6.53259L69.9941 15.6311L69.9695 19.0984L59.9858 19.541ZM70.8574 23.623L70.5131 21.4099C71.1853 21.7541 71.923 21.9591 72.7263 22.0246C73.546 22.0902 74.2919 22.0246 74.964 21.8279C75.6362 21.6476 76.2017 21.3525 76.6608 20.9427C77.1362 20.5328 77.3985 20.0738 77.4477 19.5656L77.005 10.7376L80.669 9.1146L80.9395 18.3852C80.9887 19.4836 80.833 20.4836 80.4723 21.3853C80.128 22.3033 79.6198 23.0329 78.9477 23.5738C78.2919 24.1148 77.5378 24.5001 76.6853 24.7296C75.8329 24.9755 74.8984 25.0001 73.882 24.8034C72.8656 24.623 71.8574 24.2296 70.8574 23.623ZM95.4471 15.5573C95.8405 15.5573 96.111 15.8524 96.2586 16.4426C96.4225 17.0328 96.4225 17.6229 96.2586 18.2131C96.111 18.8033 95.8405 19.0984 95.4471 19.0984H93.2339C93.2175 20.1148 93.0126 21.0328 92.6192 21.8525C92.2421 22.6722 91.7175 23.3279 91.0454 23.8197C90.3896 24.3116 89.6437 24.6476 88.8076 24.828C87.9715 25.0247 87.0535 25.0165 86.0535 24.8034C85.0699 24.6066 84.0944 24.2132 83.1272 23.623L82.7829 21.4099C83.537 21.7869 84.3485 22 85.2174 22.0492C86.1027 22.0984 86.8896 22 87.5781 21.7541C88.283 21.5246 88.865 21.1722 89.324 20.6967C89.7994 20.2213 90.029 19.6885 90.0126 19.0984H85.9797C84.5043 19.0984 83.6272 18.3688 83.3485 16.9098C83.1026 15.5163 83.3895 13.9589 84.2092 12.2376C84.9961 10.6146 85.9551 9.54083 87.0863 9.01624C87.4633 8.8523 87.8322 8.77033 88.1929 8.77033C89.5207 8.77033 90.5699 9.32772 91.3405 10.4425C92.1273 11.5409 92.6765 13.2458 92.988 15.5573H95.4471ZM86.7912 15.5573H90.1109C90.0126 14.8688 89.7912 14.213 89.447 13.5901C89.1191 12.9507 88.6929 12.631 88.1683 12.631C87.4961 12.631 86.906 12.9999 86.3977 13.7376C85.9551 14.4098 85.865 14.9262 86.1273 15.2868C86.2584 15.4672 86.4797 15.5573 86.7912 15.5573ZM94.5101 19.0984C94.1167 19.0984 93.8462 18.8033 93.6986 18.2131C93.5347 17.6229 93.5347 17.0328 93.6986 16.4426C93.8626 15.8524 94.1331 15.5573 94.5101 15.5573H106.191C106.092 13.0655 102.855 11.8196 96.4774 11.8196L96.0839 6.99981L108.797 3.43418L108.527 6.95063L99.5266 9.16378C101.395 9.19657 103.084 9.49985 104.592 10.0736C106.1 10.631 107.281 11.4015 108.133 12.3851C109.002 13.3688 109.437 14.4589 109.437 15.6557V19.0984H94.5101ZM121.341 23.6476L120.997 21.4099C121.751 21.7869 122.571 22 123.456 22.0492C124.341 22.0984 125.128 22 125.817 21.7541C126.505 21.5082 127.079 21.1476 127.538 20.6722C128.013 20.1967 128.243 19.6721 128.227 19.0984H124.194C122.718 19.0984 121.849 18.3688 121.587 16.9098C121.325 15.5163 121.612 13.9589 122.448 12.2376C123.218 10.6146 124.169 9.54083 125.3 9.01624C125.661 8.8523 126.03 8.77033 126.407 8.77033C127.063 8.77033 127.645 8.90148 128.153 9.16378C128.661 9.40969 129.087 9.77854 129.432 10.2704C129.792 10.7622 130.095 11.3032 130.341 11.8933C130.587 12.4671 130.784 13.1556 130.932 13.9589C131.079 14.7622 131.186 15.5327 131.251 16.2704C131.333 16.9918 131.399 17.8115 131.448 18.7295C131.481 19.7951 131.317 20.7623 130.956 21.6312C130.596 22.5001 130.079 23.1886 129.407 23.6968C128.751 24.2214 127.997 24.5903 127.145 24.8034C126.292 25.0329 125.358 25.0493 124.341 24.8526C123.341 24.6558 122.341 24.2542 121.341 23.6476ZM125.005 15.5573H128.325C128.276 15.1475 128.177 14.7376 128.03 14.3278C127.882 13.9016 127.661 13.5163 127.366 13.172C127.071 12.8114 126.743 12.631 126.382 12.631C125.71 12.631 125.128 12.9999 124.636 13.7376C124.194 14.4098 124.104 14.9262 124.366 15.2868C124.481 15.4672 124.694 15.5573 125.005 15.5573ZM151.217 2.32761L153.455 4.63912L151.217 6.99981L148.906 4.63912L151.217 2.32761ZM156.234 2.32761L158.471 4.63912L156.234 6.99981L153.922 4.63912L156.234 2.32761ZM151.119 26.2788C150.004 26.2624 148.987 26.0411 148.069 25.6149C147.151 25.205 146.389 24.664 145.783 23.9919C145.192 23.3361 144.709 22.5656 144.332 21.6804C143.971 20.8115 143.75 19.918 143.668 19C143.602 18.082 143.66 17.1639 143.84 16.2459C144.037 15.3114 144.364 14.4671 144.823 13.713L147.43 12.7048C146.889 13.4753 146.537 14.3278 146.373 15.2622C146.209 16.1967 146.233 17.0901 146.446 17.9426C146.66 18.7951 146.987 19.582 147.43 20.3033C147.889 21.0246 148.479 21.5984 149.201 22.0246C149.922 22.4509 150.692 22.664 151.512 22.664C152.692 22.6312 153.66 22.2705 154.414 21.582C155.184 20.8935 155.537 20.0656 155.471 19.0984H151.414C149.938 19.0984 149.069 18.3688 148.807 16.9098C148.561 15.5327 148.865 13.9753 149.717 12.2376C150.52 10.5982 151.488 9.52444 152.619 9.01624C153.258 8.73754 153.881 8.69656 154.488 8.89328C155.111 9.1064 155.652 9.40149 156.111 9.77854C156.586 10.1556 156.971 10.6064 157.266 11.131C157.578 11.6556 157.824 12.2048 158.004 12.7786C158.201 13.336 158.348 13.9917 158.447 14.7458C158.545 15.4836 158.611 16.1721 158.643 16.8114C158.676 17.4344 158.693 18.1557 158.693 18.9754C158.693 21.3033 158.037 23.0984 156.725 24.3607C155.414 25.6394 153.545 26.2788 151.119 26.2788ZM152.225 15.5573H155.545C155.447 14.8688 155.225 14.213 154.881 13.5901C154.553 12.9507 154.127 12.631 153.602 12.631C152.93 12.631 152.34 12.9999 151.832 13.7376C151.389 14.4098 151.299 14.9262 151.561 15.2868C151.692 15.4672 151.914 15.5573 152.225 15.5573ZM161.313 19.7131V2.54892L164.412 3.08991V19.0738L161.313 19.7131ZM177.845 15.5573C178.239 15.5573 178.509 15.8524 178.657 16.4426C178.821 17.0328 178.821 17.6229 178.657 18.2131C178.509 18.8033 178.239 19.0984 177.845 19.0984H175.361C175.312 20.3607 174.984 21.4591 174.378 22.3935C173.771 23.3279 173.001 24.0083 172.066 24.4345C171.148 24.8607 170.083 25.0165 168.87 24.9017C167.673 24.787 166.476 24.3607 165.279 23.623L164.935 21.4099C165.607 21.7541 166.345 21.9591 167.148 22.0246C167.968 22.0902 168.714 22.0246 169.386 21.8279C170.058 21.6476 170.624 21.3525 171.083 20.9427C171.558 20.5328 171.82 20.0738 171.87 19.5656L171.427 10.7376L175.091 9.1146L175.288 15.5573H177.845ZM181.312 4.9342L182.074 3.48336L184.14 6.01619L186.205 3.48336L186.967 4.9342L184.14 8.22934L181.312 4.9342ZM176.885 19.0984C176.508 19.0984 176.246 18.8033 176.098 18.2131C175.935 17.6229 175.935 17.0328 176.098 16.4426C176.246 15.8524 176.508 15.5573 176.885 15.5573H182.566V10.1228L185.664 10.6884V15.5573H190.73C191.107 15.5901 191.369 15.8934 191.517 16.4672C191.664 17.041 191.664 17.6147 191.517 18.1885C191.369 18.7623 191.107 19.0656 190.73 19.0984H176.885ZM181.459 20.8935L183.697 23.205L181.459 25.5657L179.148 23.205L181.459 20.8935ZM186.476 20.8935L188.713 23.205L186.476 25.5657L184.164 23.205L186.476 20.8935ZM189.473 19.0984C189.08 19.0984 188.809 18.8033 188.662 18.2131C188.498 17.6229 188.498 17.0328 188.662 16.4426C188.809 15.8524 189.08 15.5573 189.473 15.5573H194.022C193.203 14.3606 192.785 13.1884 192.768 12.0409C192.768 10.8769 193.162 9.9015 193.949 9.1146C194.752 8.3277 195.941 7.79491 197.514 7.51621C199.088 7.22113 201.047 7.34408 203.391 7.88507L203.957 9.97527C200.432 9.76215 198.203 10.1474 197.268 11.131C196.35 12.0983 196.809 13.5737 198.645 15.5573H206.392L205.973 19.0984H189.473ZM224.739 19.418L218.198 16.4918L219.501 13.2704L226.829 9.1146L226.756 8.18016L230.026 7.41785V15.5573H232.879C233.272 15.5573 233.543 15.8524 233.69 16.4426C233.854 17.0328 233.854 17.6229 233.69 18.2131C233.543 18.8033 233.272 19.0984 232.879 19.0984H227.1L227.051 17.1557L224.739 19.418ZM225.723 15.459C226.215 15.6557 226.641 15.6065 227.002 15.3114L226.903 11.4999L222.477 14.254L225.723 15.459ZM231.934 19.0984C231.541 19.0984 231.27 18.8033 231.123 18.2131C230.959 17.6229 230.959 17.0328 231.123 16.4426C231.287 15.8524 231.557 15.5573 231.934 15.5573H235.057V2.57351L238.156 3.11451V19.0984H231.934ZM281.943 15.5573C282.336 15.5573 282.607 15.8524 282.754 16.4426C282.918 17.0328 282.918 17.6229 282.754 18.2131C282.607 18.8033 282.336 19.0984 281.943 19.0984H265.738C265.508 21.3443 264.672 23.0984 263.229 24.3607C261.787 25.6394 259.893 26.2788 257.549 26.2788C256.418 26.2788 255.393 26.0739 254.475 25.664C253.557 25.2542 252.811 24.7132 252.237 24.0411C251.664 23.3853 251.196 22.6148 250.836 21.7296C250.492 20.8607 250.295 19.959 250.246 19.0246C250.196 18.1065 250.27 17.1885 250.467 16.2704C250.68 15.336 251.016 14.4835 251.475 13.713L254.082 12.7048C253.541 13.5081 253.164 14.3606 252.951 15.2622C252.754 16.1639 252.729 17.0164 252.877 17.8197C253.024 18.6066 253.295 19.3279 253.688 19.9836C254.098 20.6394 254.639 21.1558 255.311 21.5328C255.983 21.9263 256.721 22.1312 257.524 22.1476C258.82 22.164 259.877 21.8689 260.697 21.2623C261.516 20.6558 262.041 19.8443 262.27 18.8279C262.516 17.8115 262.459 16.6065 262.098 15.2131C261.738 13.8196 261.082 12.3769 260.131 10.8851L263.5 9.45887C264.598 11.5737 265.295 13.6065 265.59 15.5573H268.885L267.902 10.1474L271.541 9.13919L272.156 15.5573H274.935L273.951 9.9015L277.566 8.89328L278.205 15.5573H281.943ZM298.036 15.5573C298.43 15.5573 298.7 15.8524 298.848 16.4426C299.012 17.0328 299.012 17.6229 298.848 18.2131C298.7 18.8033 298.43 19.0984 298.036 19.0984H280.823C280.429 19.0984 280.159 18.8033 280.011 18.2131C279.847 17.6229 279.847 17.0328 280.011 16.4426C280.175 15.8524 280.446 15.5573 280.823 15.5573H291.667H292.503C292.405 13.0655 289.167 11.8196 282.79 11.8196L282.396 6.99981L295.11 3.43418L294.839 6.95063L285.864 9.28673C288.7 9.27034 291.044 9.86871 292.897 11.0818C294.766 12.2786 295.716 13.7704 295.749 15.5573H298.036ZM301.554 4.51617L302.316 3.06532L304.382 5.59815L306.447 3.06532L307.209 4.51617L304.382 7.8113L301.554 4.51617ZM297.275 19.0984C296.881 19.0984 296.611 18.8033 296.463 18.2131C296.299 17.6229 296.299 17.0328 296.463 16.4426C296.611 15.8524 296.881 15.5573 297.275 15.5573H304.947V10.0982L308.046 10.6638V19.0984H297.275ZM300.791 20.8935L303.029 23.205L300.791 25.5657L298.48 23.205L300.791 20.8935ZM305.808 20.8935L308.046 23.205L305.808 25.5657L303.496 23.205L305.808 20.8935ZM308.925 23.623L308.581 21.4099C309.253 21.7541 309.991 21.9591 310.794 22.0246C311.614 22.0902 312.36 22.0246 313.032 21.8279C313.704 21.6476 314.269 21.3525 314.729 20.9427C315.204 20.5328 315.466 20.0738 315.515 19.5656L315.073 10.7376L318.737 9.1146L319.007 18.3852C319.056 19.4836 318.901 20.4836 318.54 21.3853C318.196 22.3033 317.688 23.0329 317.015 23.5738C316.36 24.1148 315.606 24.5001 314.753 24.7296C313.901 24.9755 312.966 25.0001 311.95 24.8034C310.933 24.623 309.925 24.2296 308.925 23.623ZM310.45 27.828L311.212 26.3772L313.278 28.91L315.343 26.3772L316.106 27.828L313.278 31.1231L310.45 27.828ZM323.654 3.99976L324.416 2.54892L326.482 5.08175L328.548 2.54892L329.31 3.99976L326.482 7.2949L323.654 3.99976ZM333.515 15.5573C333.908 15.5573 334.179 15.8524 334.326 16.4426C334.49 17.0328 334.49 17.6229 334.326 18.2131C334.179 18.8033 333.908 19.0984 333.515 19.0984H331.302C331.285 20.1148 331.08 21.0328 330.687 21.8525C330.31 22.6722 329.785 23.3279 329.113 23.8197C328.457 24.3116 327.711 24.6476 326.875 24.828C326.039 25.0247 325.121 25.0165 324.121 24.8034C323.138 24.6066 322.162 24.2132 321.195 23.623L320.851 21.4099C321.605 21.7869 322.416 22 323.285 22.0492C324.17 22.0984 324.957 22 325.646 21.7541C326.351 21.5246 326.933 21.1722 327.392 20.6967C327.867 20.2213 328.097 19.6885 328.08 19.0984H324.047C322.572 19.0984 321.695 18.3688 321.416 16.9098C321.17 15.5163 321.457 13.9589 322.277 12.2376C323.064 10.6146 324.023 9.54083 325.154 9.01624C325.531 8.8523 325.9 8.77033 326.261 8.77033C327.589 8.77033 328.638 9.32772 329.408 10.4425C330.195 11.5409 330.744 13.2458 331.056 15.5573H333.515ZM324.859 15.5573H328.179C328.08 14.8688 327.859 14.213 327.515 13.5901C327.187 12.9507 326.761 12.631 326.236 12.631C325.564 12.631 324.974 12.9999 324.466 13.7376C324.023 14.4098 323.933 14.9262 324.195 15.2868C324.326 15.4672 324.547 15.5573 324.859 15.5573ZM340.422 0.753812L342.66 3.06532L340.422 5.42602L338.111 3.06532L340.422 0.753812ZM332.578 19.0984C332.184 19.0984 331.914 18.8033 331.766 18.2131C331.602 17.6229 331.602 17.0328 331.766 16.4426C331.93 15.8524 332.201 15.5573 332.578 15.5573H337.201C336.742 15.1803 336.48 14.6393 336.414 13.9343C336.365 13.213 336.496 12.4671 336.807 11.6966C337.119 10.9097 337.529 10.1638 338.037 9.45887C338.545 8.73754 339.152 8.14737 339.857 7.68835C340.578 7.21293 341.283 6.97522 341.971 6.97522C343.053 6.97522 343.988 7.47523 344.775 8.47524C345.578 9.47526 346.135 10.6392 346.447 11.9671C346.758 13.2786 346.849 14.5081 346.717 15.6557L346.324 19.0984H332.578ZM343.422 15.4836C343.504 14.2868 343.349 13.1638 342.955 12.1146C342.578 11.0654 342.127 10.5409 341.603 10.5409C341.242 10.5572 340.881 10.7458 340.521 11.1064C340.176 11.4671 339.947 11.8523 339.832 12.2622C339.717 12.672 339.742 13.0245 339.906 13.3196L343.422 15.4836ZM366.153 24.1148C365.021 24.1148 363.997 23.9263 363.079 23.5493C362.161 23.1722 361.415 22.664 360.841 22.0246C360.267 21.4017 359.8 20.6722 359.439 19.8361C359.095 19.0164 358.898 18.1721 358.849 17.3033C358.8 16.418 358.874 15.5245 359.07 14.6229C359.284 13.7212 359.62 12.8851 360.079 12.1146L362.685 11.1064C362.144 11.9097 361.767 12.7622 361.554 13.6639C361.357 14.5655 361.333 15.418 361.48 16.2213C361.628 17.0082 361.898 17.7295 362.292 18.3852C362.702 19.041 363.243 19.5574 363.915 19.9344C364.587 20.3279 365.325 20.5328 366.128 20.5492C367.833 20.5492 369.112 20.2049 369.964 19.5164C370.833 18.8443 371.177 17.918 370.997 16.7377H365.267C365.021 15.6557 364.931 14.6393 364.997 13.6884C365.079 12.7212 365.349 11.8441 365.808 11.0573C366.267 10.254 366.825 9.58182 367.48 9.04083C368.153 8.49983 368.948 8.11458 369.866 7.88507C370.8 7.65556 371.784 7.61457 372.817 7.76212V11.1556C372.259 10.9589 371.603 10.9507 370.849 11.131C370.095 11.3114 369.358 11.631 368.636 12.0901C367.915 12.5327 367.464 12.9753 367.284 13.4179L373.825 13.4425L374.218 15.2868C374.513 16.8934 374.358 18.377 373.751 19.7377C373.144 21.0984 372.169 22.164 370.825 22.9345C369.48 23.7214 367.923 24.1148 366.153 24.1148ZM375.228 23.623L374.884 21.4099C375.556 21.7541 376.293 21.9591 377.097 22.0246C377.916 22.0902 378.662 22.0246 379.335 21.8279C380.007 21.6476 380.572 21.3525 381.031 20.9427C381.507 20.5328 381.769 20.0738 381.818 19.5656L381.376 10.7376L385.04 9.1146L385.31 18.3852C385.359 19.4836 385.203 20.4836 384.843 21.3853C384.499 22.3033 383.99 23.0329 383.318 23.5738C382.662 24.1148 381.908 24.5001 381.056 24.7296C380.203 24.9755 379.269 25.0001 378.253 24.8034C377.236 24.623 376.228 24.2296 375.228 23.623ZM394.186 19.418L387.645 16.4918L388.949 13.2704L396.277 9.1146L396.203 8.18016L399.473 7.41785V15.5573H402.326C402.719 15.5573 402.99 15.8524 403.137 16.4426C403.301 17.0328 403.301 17.6229 403.137 18.2131C402.99 18.8033 402.719 19.0984 402.326 19.0984H396.547L396.498 17.1557L394.186 19.418ZM395.17 15.459C395.662 15.6557 396.088 15.6065 396.449 15.3114L396.35 11.4999L391.924 14.254L395.17 15.459ZM401.381 19.0984C400.988 19.0984 400.718 18.8033 400.57 18.2131C400.406 17.6229 400.406 17.0328 400.57 16.4426C400.734 15.8524 401.004 15.5573 401.381 15.5573H413.062C412.964 13.0655 409.726 11.8196 403.349 11.8196L402.955 6.99981L415.669 3.43418L415.398 6.95063L406.398 9.16378C408.267 9.19657 409.955 9.49985 411.464 10.0736C412.972 10.631 414.152 11.4015 415.005 12.3851C415.874 13.3688 416.308 14.4589 416.308 15.6557V19.0984H401.381ZM420.821 3.99976L421.583 2.54892L423.649 5.08175L425.714 2.54892L426.477 3.99976L423.649 7.2949L420.821 3.99976ZM418.362 23.6476L418.017 21.4099C419.132 21.9017 420.222 22.1148 421.288 22.0492C422.37 21.9837 423.304 21.664 424.091 21.0902C424.878 20.5328 425.263 19.8689 425.247 19.0984H421.214C419.739 19.0984 418.87 18.3688 418.608 16.9098C418.345 15.5163 418.632 13.9589 419.468 12.2376C420.239 10.6146 421.19 9.54083 422.321 9.01624C422.681 8.8523 423.05 8.77033 423.427 8.77033C424.083 8.77033 424.665 8.90148 425.173 9.16378C425.682 9.40969 426.108 9.77854 426.452 10.2704C426.813 10.7622 427.116 11.3032 427.362 11.8933C427.608 12.4671 427.805 13.1556 427.952 13.9589C428.1 14.7622 428.206 15.5327 428.272 16.2704C428.354 16.9918 428.419 17.8115 428.468 18.7295C428.501 19.7951 428.337 20.7623 427.977 21.6312C427.616 22.5001 427.1 23.1886 426.427 23.6968C425.772 24.2214 425.018 24.5903 424.165 24.8034C423.313 25.0329 422.378 25.0493 421.362 24.8526C420.362 24.6558 419.362 24.2542 418.362 23.6476ZM422.026 15.5573H425.345C425.247 14.8688 425.026 14.213 424.682 13.5901C424.354 12.9507 423.927 12.631 423.403 12.631C422.731 12.631 422.149 12.9999 421.657 13.7376C421.214 14.4098 421.124 14.9262 421.386 15.2868C421.501 15.4672 421.714 15.5573 422.026 15.5573ZM441.928 15.5573C442.321 15.5573 442.592 15.8524 442.739 16.4426C442.903 17.0328 442.903 17.6229 442.739 18.2131C442.592 18.8033 442.321 19.0984 441.928 19.0984H439.444C439.395 20.3607 439.067 21.4591 438.46 22.3935C437.854 23.3279 437.083 24.0083 436.149 24.4345C435.231 24.8607 434.165 25.0165 432.952 24.9017C431.755 24.787 430.559 24.3607 429.362 23.623L429.018 21.4099C429.69 21.7541 430.428 21.9591 431.231 22.0246C432.05 22.0902 432.796 22.0246 433.469 21.8279C434.141 21.6476 434.706 21.3525 435.165 20.9427C435.641 20.5328 435.903 20.0738 435.952 19.5656L435.51 10.7376L439.174 9.1146L439.37 15.5573H441.928ZM433.714 28.91L435.78 26.3772L436.542 27.828L433.714 31.1231L430.887 27.828L431.649 26.3772L433.714 28.91ZM441.091 19.0984C440.697 19.0984 440.427 18.8033 440.279 18.2131C440.115 17.6229 440.115 17.0328 440.279 16.4426C440.443 15.8524 440.714 15.5573 441.091 15.5573H445.493V8.89328L448.591 9.43428V19.0984H441.091ZM444.583 20.9427L446.82 23.2542L444.583 25.6149L442.271 23.2542L444.583 20.9427ZM469.688 6.80309L467.45 9.16378L465.139 6.80309L467.45 4.49158L469.688 6.80309ZM479.279 15.5573C479.672 15.5573 479.942 15.8524 480.09 16.4426C480.254 17.0328 480.254 17.6229 480.09 18.2131C479.942 18.8033 479.672 19.0984 479.279 19.0984H476.205C475.975 21.2951 475.139 23.041 473.696 24.3361C472.27 25.6313 470.377 26.2788 468.016 26.2788C466.885 26.2788 465.86 26.0739 464.942 25.664C464.024 25.2542 463.278 24.7132 462.705 24.0411C462.131 23.3853 461.664 22.6148 461.303 21.7296C460.959 20.8607 460.762 19.959 460.713 19.0246C460.663 18.1065 460.737 17.1885 460.934 16.2704C461.147 15.336 461.483 14.4835 461.942 13.713L464.549 12.7048C464.008 13.5081 463.631 14.3606 463.418 15.2622C463.221 16.1639 463.196 17.0164 463.344 17.8197C463.491 18.6066 463.762 19.3279 464.155 19.9836C464.565 20.6394 465.106 21.1558 465.778 21.5328C466.45 21.9263 467.188 22.1312 467.991 22.1476C469.287 22.164 470.344 21.8689 471.164 21.2623C471.983 20.6558 472.508 19.8443 472.737 18.8279C472.983 17.8115 472.926 16.6065 472.565 15.2131C472.205 13.8196 471.549 12.3769 470.598 10.8851L473.967 9.45887C475.049 11.5409 475.754 13.5737 476.082 15.5573H479.279ZM478.555 19.0984C478.162 19.0984 477.891 18.8033 477.744 18.2131C477.58 17.6229 477.58 17.0328 477.744 16.4426C477.891 15.8524 478.162 15.5573 478.555 15.5573H486.228V10.0982L489.326 10.6638V19.0984H478.555ZM482.072 20.8935L484.309 23.205L482.072 25.5657L479.76 23.205L482.072 20.8935ZM487.088 20.8935L489.326 23.205L487.088 25.5657L484.777 23.205L487.088 20.8935ZM502.771 15.5573C503.165 15.5573 503.435 15.8524 503.583 16.4426C503.747 17.0328 503.747 17.6229 503.583 18.2131C503.435 18.8033 503.165 19.0984 502.771 19.0984H500.288C500.238 20.3607 499.911 21.4591 499.304 22.3935C498.697 23.3279 497.927 24.0083 496.993 24.4345C496.074 24.8607 495.009 25.0165 493.796 24.9017C492.599 24.787 491.402 24.3607 490.206 23.623L489.861 21.4099C490.533 21.7541 491.271 21.9591 492.074 22.0246C492.894 22.0902 493.64 22.0246 494.312 21.8279C494.984 21.6476 495.55 21.3525 496.009 20.9427C496.484 20.5328 496.747 20.0738 496.796 19.5656L496.353 10.7376L500.017 9.1146L500.214 15.5573H502.771ZM506.68 3.06532L508.918 5.37684L506.68 7.73753L504.369 5.37684L506.68 3.06532ZM511.697 3.06532L513.935 5.37684L511.697 7.73753L509.385 5.37684L511.697 3.06532ZM502.008 19.0984C501.615 19.0984 501.344 18.8033 501.197 18.2131C501.033 17.6229 501.033 17.0328 501.197 16.4426C501.344 15.8524 501.615 15.5573 502.008 15.5573H509.681V10.0982L512.779 10.6638V19.0984H502.008ZM517.568 20.1066C516.7 19.9426 515.978 19.4836 515.404 18.7295C514.847 17.9754 514.65 17.1967 514.814 16.3934C515.159 14.6557 515.945 13.0491 517.175 11.5737L516.757 11.3769L518.331 8.30311C520.724 8.87689 522.454 10.0982 523.519 11.9671C524.421 13.5409 524.642 15.1311 524.183 16.7377C523.757 18.2787 522.814 19.3279 521.355 19.8853C520.273 20.3279 519.011 20.4017 517.568 20.1066ZM521.036 15.1885C521.183 14.713 521.036 14.2048 520.593 13.6639C520.167 13.1229 519.552 12.6966 518.749 12.3851C518.454 12.5983 518.175 12.8933 517.913 13.2704C517.667 13.6311 517.486 13.9917 517.372 14.3524C517.175 15.0409 517.445 15.5819 518.183 15.9754C518.905 16.336 519.593 16.377 520.249 16.0983C520.659 15.918 520.921 15.6147 521.036 15.1885ZM525.034 23.623L524.69 21.4099C525.362 21.7541 526.1 21.9591 526.903 22.0246C527.723 22.0902 528.469 22.0246 529.141 21.8279C529.813 21.6476 530.379 21.3525 530.838 20.9427C531.313 20.5328 531.575 20.0738 531.625 19.5656L531.182 10.7376L534.846 9.1146L535.116 18.3852C535.166 19.4836 535.01 20.4836 534.649 21.3853C534.305 22.3033 533.797 23.0329 533.125 23.5738C532.469 24.1148 531.715 24.5001 530.862 24.7296C530.01 24.9755 529.075 25.0001 528.059 24.8034C527.042 24.623 526.034 24.2296 525.034 23.623ZM537.304 23.6476L536.96 21.4099C537.714 21.7869 538.534 22 539.419 22.0492C540.304 22.0984 541.091 22 541.78 21.7541C542.468 21.5082 543.042 21.1476 543.501 20.6722C543.976 20.1967 544.206 19.6721 544.189 19.0984H540.157C538.681 19.0984 537.812 18.3688 537.55 16.9098C537.288 15.5163 537.575 13.9589 538.411 12.2376C539.181 10.6146 540.132 9.54083 541.263 9.01624C541.624 8.8523 541.993 8.77033 542.37 8.77033C543.025 8.77033 543.607 8.90148 544.116 9.16378C544.624 9.40969 545.05 9.77854 545.394 10.2704C545.755 10.7622 546.058 11.3032 546.304 11.8933C546.55 12.4671 546.747 13.1556 546.894 13.9589C547.042 14.7622 547.148 15.5327 547.214 16.2704C547.296 16.9918 547.362 17.8115 547.411 18.7295C547.444 19.7951 547.28 20.7623 546.919 21.6312C546.558 22.5001 546.042 23.1886 545.37 23.6968C544.714 24.2214 543.96 24.5903 543.107 24.8034C542.255 25.0329 541.321 25.0493 540.304 24.8526C539.304 24.6558 538.304 24.2542 537.304 23.6476ZM540.968 15.5573H544.288C544.239 15.1475 544.14 14.7376 543.993 14.3278C543.845 13.9016 543.624 13.5163 543.329 13.172C543.034 12.8114 542.706 12.631 542.345 12.631C541.673 12.631 541.091 12.9999 540.599 13.7376C540.157 14.4098 540.066 14.9262 540.329 15.2868C540.443 15.4672 540.657 15.5573 540.968 15.5573ZM556.222 19.418L549.681 16.4918L550.985 13.2704L558.313 9.1146L558.239 8.18016L561.509 7.41785V15.5573H564.362C564.755 15.5573 565.026 15.8524 565.173 16.4426C565.337 17.0328 565.337 17.6229 565.173 18.2131C565.026 18.8033 564.755 19.0984 564.362 19.0984H558.583L558.534 17.1557L556.222 19.418ZM557.206 15.459C557.698 15.6557 558.124 15.6065 558.485 15.3114L558.386 11.4999L553.96 14.254L557.206 15.459ZM564.991 5.77028L564.893 4.31944L577.705 0.704631V2.20465L564.991 5.77028ZM563.418 19.0984C563.024 19.0984 562.754 18.8033 562.606 18.2131C562.442 17.6229 562.442 17.0328 562.606 16.4426C562.77 15.8524 563.04 15.5573 563.418 15.5573H575.098C575 13.0655 571.762 11.8196 565.385 11.8196L564.991 6.99981L577.705 3.43418L577.434 6.95063L568.459 9.28673C571.328 9.27034 573.688 9.87691 575.541 11.1064C577.41 12.3196 578.344 13.836 578.344 15.6557V19.0984H563.418ZM596.937 19.418L590.396 16.4918L591.7 13.2704L599.028 9.1146L598.954 8.18016L602.224 7.41785V15.5573H605.077C605.47 15.5573 605.741 15.8524 605.888 16.4426C606.052 17.0328 606.052 17.6229 605.888 18.2131C605.741 18.8033 605.47 19.0984 605.077 19.0984H599.298L599.249 17.1557L596.937 19.418ZM597.921 15.459C598.413 15.6557 598.839 15.6065 599.2 15.3114L599.101 11.4999L594.675 14.254L597.921 15.459ZM608.657 2.8686L610.895 5.18011L608.657 7.5408L606.346 5.18011L608.657 2.8686ZM604.255 19.0984C603.862 19.0984 603.591 18.8033 603.444 18.2131C603.28 17.6229 603.28 17.0328 603.444 16.4426C603.608 15.8524 603.878 15.5573 604.255 15.5573H608.657V8.89328L611.756 9.43428V19.0984H604.255ZM614.026 19.7131V2.54892L617.125 3.08991V19.0738L614.026 19.7131ZM619.222 23.6476L618.878 21.4099C619.632 21.7869 620.451 22 621.337 22.0492C622.222 22.0984 623.009 22 623.697 21.7541C624.386 21.5082 624.96 21.1476 625.419 20.6722C625.894 20.1967 626.124 19.6721 626.107 19.0984H622.074C620.599 19.0984 619.73 18.3688 619.468 16.9098C619.205 15.5163 619.492 13.9589 620.328 12.2376C621.099 10.6146 622.05 9.54083 623.181 9.01624C623.542 8.8523 623.91 8.77033 624.288 8.77033C624.943 8.77033 625.525 8.90148 626.033 9.16378C626.542 9.40969 626.968 9.77854 627.312 10.2704C627.673 10.7622 627.976 11.3032 628.222 11.8933C628.468 12.4671 628.665 13.1556 628.812 13.9589C628.96 14.7622 629.066 15.5327 629.132 16.2704C629.214 16.9918 629.279 17.8115 629.329 18.7295C629.361 19.7951 629.197 20.7623 628.837 21.6312C628.476 22.5001 627.96 23.1886 627.288 23.6968C626.632 24.2214 625.878 24.5903 625.025 24.8034C624.173 25.0329 623.238 25.0493 622.222 24.8526C621.222 24.6558 620.222 24.2542 619.222 23.6476ZM622.886 15.5573H626.206C626.156 15.1475 626.058 14.7376 625.91 14.3278C625.763 13.9016 625.542 13.5163 625.247 13.172C624.951 12.8114 624.624 12.631 624.263 12.631C623.591 12.631 623.009 12.9999 622.517 13.7376C622.074 14.4098 621.984 14.9262 622.246 15.2868C622.361 15.4672 622.574 15.5573 622.886 15.5573ZM631.452 23.6476L631.107 21.4099C631.861 21.7869 632.681 22 633.566 22.0492C634.452 22.0984 635.238 22 635.927 21.7541C636.616 21.5082 637.189 21.1476 637.648 20.6722C638.124 20.1967 638.353 19.6721 638.337 19.0984H634.304C632.829 19.0984 631.96 18.3688 631.697 16.9098C631.435 15.5163 631.722 13.9589 632.558 12.2376C633.329 10.6146 634.279 9.54083 635.411 9.01624C635.771 8.8523 636.14 8.77033 636.517 8.77033C637.173 8.77033 637.755 8.90148 638.263 9.16378C638.771 9.40969 639.198 9.77854 639.542 10.2704C639.902 10.7622 640.206 11.3032 640.452 11.8933C640.698 12.4671 640.894 13.1556 641.042 13.9589C641.189 14.7622 641.296 15.5327 641.362 16.2704C641.443 16.9918 641.509 17.8115 641.558 18.7295C641.591 19.7951 641.427 20.7623 641.066 21.6312C640.706 22.5001 640.189 23.1886 639.517 23.6968C638.861 24.2214 638.107 24.5903 637.255 24.8034C636.402 25.0329 635.468 25.0493 634.452 24.8526C633.452 24.6558 632.452 24.2542 631.452 23.6476ZM635.116 15.5573H638.435C638.386 15.1475 638.288 14.7376 638.14 14.3278C637.993 13.9016 637.771 13.5163 637.476 13.172C637.181 12.8114 636.853 12.631 636.493 12.631C635.82 12.631 635.238 12.9999 634.747 13.7376C634.304 14.4098 634.214 14.9262 634.476 15.2868C634.591 15.4672 634.804 15.5573 635.116 15.5573ZM648.304 2.40138L650.542 4.71289L648.304 7.07358L645.993 4.71289L648.304 2.40138ZM642.452 23.623L642.107 21.4099C642.78 21.7541 643.517 21.9591 644.321 22.0246C645.14 22.0902 645.886 22.0246 646.558 21.8279C647.23 21.6476 647.796 21.3525 648.255 20.9427C648.731 20.5328 648.993 20.0738 649.042 19.5656L648.599 10.7376L652.263 9.1146L652.534 18.3852C652.583 19.4836 652.427 20.4836 652.067 21.3853C651.722 22.3033 651.214 23.0329 650.542 23.5738C649.886 24.1148 649.132 24.5001 648.28 24.7296C647.427 24.9755 646.493 25.0001 645.476 24.8034C644.46 24.623 643.452 24.2296 642.452 23.623ZM664.745 27.5329V18.9508L666.613 15.5573H669.097C669.113 14.9999 669.245 14.3852 669.491 13.713C669.736 13.0245 670.064 12.3687 670.474 11.7458C670.884 11.1064 671.409 10.5736 672.048 10.1474C672.704 9.72117 673.4 9.50805 674.138 9.50805C674.925 9.50805 675.687 9.86051 676.425 10.5654C677.163 11.2704 677.728 12.1638 678.122 13.2458C678.515 14.3114 678.63 15.3278 678.466 16.295L677.925 19.7377L667.843 19.0984L668.089 26.0083L664.745 27.5329ZM675.146 15.9508C675.146 15.4098 675.064 14.918 674.9 14.4753C674.753 14.0327 674.548 13.6802 674.286 13.4179C674.04 13.1556 673.761 12.9589 673.45 12.8278C673.138 12.6802 672.818 12.6392 672.491 12.7048C672.179 12.7704 671.884 12.9015 671.605 13.0983C671.343 13.295 671.114 13.6065 670.917 14.0327C670.736 14.4426 670.622 14.9344 670.573 15.5081L675.146 15.9508ZM687.242 19.418L680.701 16.4918L682.004 13.2704L689.332 9.1146L689.258 8.18016L692.529 7.41785V15.5573H695.381C695.775 15.5573 696.045 15.8524 696.193 16.4426C696.357 17.0328 696.357 17.6229 696.193 18.2131C696.045 18.8033 695.775 19.0984 695.381 19.0984H689.603L689.554 17.1557L687.242 19.418ZM688.226 15.459C688.717 15.6557 689.144 15.6065 689.504 15.3114L689.406 11.4999L684.98 14.254L688.226 15.459ZM694.56 19.0984C694.167 19.0984 693.896 18.8033 693.749 18.2131C693.585 17.6229 693.585 17.0328 693.749 16.4426C693.913 15.8524 694.183 15.5573 694.56 15.5573H698.962V8.89328L702.06 9.43428V19.0984H694.56ZM698.052 20.9427L700.29 23.2542L698.052 25.6149L695.74 23.2542L698.052 20.9427Z" fill="black"/>
</svg>
