<svg width="303" height="64" viewBox="0 0 303 64" fill="none" xmlns="http://www.w3.org/2000/svg">
<path d="M8.23831 20.4597C7.25202 20.4597 6.35865 20.2953 5.55819 19.9666C4.75773 19.6378 4.10735 19.1947 3.60706 18.6372C3.10677 18.0941 2.6994 17.458 2.38493 16.729C2.08476 16.0143 1.91323 15.2782 1.87035 14.5206C1.82747 13.7487 1.89179 12.9697 2.06332 12.1835C2.24914 11.3973 2.54216 10.6684 2.94239 9.99654L5.21513 9.11746C4.74343 9.81786 4.41467 10.5611 4.22885 11.3473C4.05732 12.1335 4.03588 12.8768 4.16453 13.5772C4.29317 14.2633 4.52902 14.8922 4.87208 15.464C5.22943 16.0357 5.70113 16.486 6.28718 16.8148C6.87323 17.1578 7.51646 17.3365 8.21687 17.3508C9.70344 17.3508 10.8184 17.0506 11.5617 16.4503C12.3192 15.8642 12.6194 15.0566 12.4622 14.0274H7.46643C7.25202 13.084 7.17341 12.1978 7.23058 11.3688C7.30205 10.5254 7.5379 9.76069 7.93813 9.07458C8.33837 8.37417 8.82436 7.78812 9.39612 7.31642C9.98217 6.84472 10.6754 6.50881 11.4759 6.30869C12.2906 6.10858 13.1483 6.07284 14.0488 6.20149V9.16034C13.5628 8.98881 12.9911 8.98166 12.3335 9.1389C11.676 9.29613 11.0328 9.57486 10.4038 9.97509C9.77491 10.361 9.38182 10.747 9.22459 11.1329L14.9279 11.1543L15.2709 12.7624C15.5282 14.1632 15.3924 15.4568 14.8636 16.6432C14.3347 17.8296 13.4842 18.7587 12.3121 19.4306C11.14 20.1167 9.78206 20.4597 8.23831 20.4597ZM16.1512 20.0309L15.8511 18.1012C16.4371 18.4014 17.0803 18.5801 17.7807 18.6372C18.4954 18.6944 19.1458 18.6372 19.7319 18.4657C20.3179 18.3085 20.8111 18.0512 21.2113 17.6938C21.6258 17.3365 21.8545 16.9363 21.8974 16.4931L21.5115 8.79584L24.7062 7.38074L24.942 15.464C24.9849 16.4217 24.8491 17.2936 24.5346 18.0798C24.2345 18.8802 23.7914 19.5163 23.2053 19.988C22.6335 20.4597 21.976 20.7956 21.2327 20.9957C20.4894 21.2101 19.6747 21.2316 18.7885 21.0601C17.9022 20.9028 17.0232 20.5598 16.1512 20.0309ZM32.6814 16.3645L26.9782 13.813L28.1145 11.0043L34.5039 7.38074L34.4396 6.56598L37.2912 5.90131V12.9983H39.7784C40.1215 12.9983 40.3573 13.2556 40.486 13.7701C40.6289 14.2847 40.6289 14.7993 40.486 15.3139C40.3573 15.8285 40.1215 16.0858 39.7784 16.0858H34.7398L34.6969 14.3919L32.6814 16.3645ZM33.5391 12.9125C33.9679 13.084 34.3395 13.0411 34.654 12.7839L34.5682 9.46051L30.7089 11.8619L33.5391 12.9125ZM38.955 16.0858C38.612 16.0858 38.3761 15.8285 38.2475 15.3139C38.1045 14.7993 38.1045 14.2847 38.2475 13.7701C38.3904 13.2556 38.6263 12.9983 38.955 12.9983H49.1395C49.0537 10.8256 46.2306 9.73924 40.6703 9.73924L40.3272 5.53682L51.4122 2.42788L51.1764 5.49394L43.329 7.42362C44.9585 7.45221 46.4308 7.71665 47.7458 8.21694C49.0608 8.70293 50.09 9.37475 50.8333 10.2324C51.5909 11.09 51.9697 12.0406 51.9697 13.084V16.0858H38.955ZM55.9045 2.92102L56.5692 1.65601L58.3702 3.86443L60.1712 1.65601L60.8359 2.92102L58.3702 5.79411L55.9045 2.92102ZM53.7604 20.0523L53.4602 18.1012C54.4322 18.53 55.3828 18.7159 56.3119 18.6587C57.2553 18.6015 58.07 18.3228 58.7561 17.8225C59.4423 17.3365 59.7782 16.7576 59.7639 16.0858H56.2476C54.9611 16.0858 54.2035 15.4497 53.9748 14.1775C53.7461 12.9625 53.9963 11.6046 54.7252 10.1037C55.3971 8.68864 56.2261 7.75238 57.2124 7.29498C57.5269 7.15204 57.8485 7.08057 58.1772 7.08057C58.749 7.08057 59.2564 7.19492 59.6995 7.42362C60.1427 7.63803 60.5143 7.95965 60.8145 8.38847C61.1289 8.81728 61.3934 9.28898 61.6078 9.80357C61.8222 10.3039 61.9937 10.9042 62.1224 11.6046C62.251 12.305 62.3439 12.9768 62.4011 13.6201C62.4726 14.249 62.5298 14.9637 62.5726 15.7641C62.6012 16.6933 62.4583 17.5366 62.1438 18.2942C61.8293 19.0518 61.3791 19.6521 60.793 20.0952C60.2213 20.5526 59.5638 20.8742 58.8205 21.0601C58.0772 21.2602 57.2624 21.2745 56.3762 21.1029C55.5043 20.9314 54.6323 20.5812 53.7604 20.0523ZM56.9551 12.9983H59.8496C59.7639 12.3979 59.5709 11.8262 59.2707 11.283C58.9848 10.7255 58.6132 10.4468 58.1558 10.4468C57.5697 10.4468 57.0623 10.7684 56.6335 11.4116C56.2476 11.9977 56.1689 12.448 56.3976 12.7624C56.4977 12.9197 56.6835 12.9983 56.9551 12.9983ZM74.308 12.9983C74.651 12.9983 74.8869 13.2556 75.0155 13.7701C75.1585 14.2847 75.1585 14.7993 75.0155 15.3139C74.8869 15.8285 74.651 16.0858 74.308 16.0858H72.1425C72.0996 17.1864 71.8137 18.1441 71.2848 18.9589C70.7559 19.7736 70.0841 20.3668 69.2694 20.7384C68.4689 21.1101 67.5398 21.2459 66.482 21.1458C65.4386 21.0458 64.3951 20.6741 63.3517 20.0309L63.0515 18.1012C63.6375 18.4014 64.2808 18.5801 64.9812 18.6372C65.6959 18.6944 66.3463 18.6372 66.9323 18.4657C67.5184 18.3085 68.0115 18.0512 68.4117 17.6938C68.8263 17.3365 69.055 16.9363 69.0978 16.4931L68.7119 8.79584L71.9066 7.38074L72.0781 12.9983H74.308ZM67.1467 24.6407L68.9478 22.4323L69.6124 23.6973L67.1467 26.5704L64.681 23.6973L65.3457 22.4323L67.1467 24.6407ZM73.5784 16.0858C73.2353 16.0858 72.9995 15.8285 72.8708 15.3139C72.7279 14.7993 72.7279 14.2847 72.8708 13.7701C73.0138 13.2556 73.2496 12.9983 73.5784 12.9983H77.4163V7.18777L80.1179 7.65947V16.0858H73.5784ZM76.623 17.6938L78.5741 19.7093L76.623 21.7676L74.6075 19.7093L76.623 17.6938ZM98.5129 5.36529L96.5618 7.42362L94.5463 5.36529L96.5618 3.34984L98.5129 5.36529ZM106.875 12.9983C107.218 12.9983 107.454 13.2556 107.582 13.7701C107.725 14.2847 107.725 14.7993 107.582 15.3139C107.454 15.8285 107.218 16.0858 106.875 16.0858H104.195C103.995 18.0012 103.266 19.5235 102.008 20.6527C100.764 21.7819 99.1132 22.3465 97.0549 22.3465C96.0686 22.3465 95.1753 22.1678 94.3748 21.8105C93.5743 21.4531 92.924 20.9814 92.4237 20.3954C91.9234 19.8236 91.516 19.1518 91.2015 18.3799C90.9014 17.6224 90.7298 16.8362 90.687 16.0214C90.6441 15.221 90.7084 14.4205 90.8799 13.6201C91.0657 12.8053 91.3588 12.062 91.759 11.3902L94.0317 10.5111C93.56 11.2115 93.2313 11.9548 93.0455 12.741C92.8739 13.5271 92.8525 14.2704 92.9811 14.9708C93.1098 15.6569 93.3456 16.2859 93.6887 16.8576C94.046 17.4294 94.5177 17.8797 95.1038 18.2084C95.6898 18.5515 96.3331 18.7301 97.0335 18.7444C98.1627 18.7587 99.0847 18.5014 99.7994 17.9726C100.514 17.4437 100.971 16.7361 101.172 15.8499C101.386 14.9637 101.336 13.9131 101.021 12.6981C100.707 11.4831 100.135 10.2252 99.3062 8.92449L102.244 7.68091C103.187 9.49625 103.802 11.2687 104.088 12.9983H106.875ZM106.244 16.0858C105.901 16.0858 105.665 15.8285 105.537 15.3139C105.394 14.7993 105.394 14.2847 105.537 13.7701C105.665 13.2556 105.901 12.9983 106.244 12.9983H112.934V8.23838L115.635 8.73152V16.0858H106.244ZM109.31 17.651L111.261 19.6664L109.31 21.7247L107.295 19.6664L109.31 17.651ZM113.684 17.651L115.635 19.6664L113.684 21.7247L111.669 19.6664L113.684 17.651ZM127.359 12.9983C127.702 12.9983 127.938 13.2556 128.066 13.7701C128.209 14.2847 128.209 14.7993 128.066 15.3139C127.938 15.8285 127.702 16.0858 127.359 16.0858H125.193C125.15 17.1864 124.864 18.1441 124.335 18.9589C123.807 19.7736 123.135 20.3668 122.32 20.7384C121.52 21.1101 120.59 21.2459 119.533 21.1458C118.489 21.0458 117.446 20.6741 116.402 20.0309L116.102 18.1012C116.688 18.4014 117.331 18.5801 118.032 18.6372C118.746 18.6944 119.397 18.6372 119.983 18.4657C120.569 18.3085 121.062 18.0512 121.462 17.6938C121.877 17.3365 122.106 16.9363 122.148 16.4931L121.763 8.79584L124.957 7.38074L125.129 12.9983H127.359ZM130.767 2.10627L132.718 4.12172L130.767 6.18005L128.752 4.12172L130.767 2.10627ZM135.141 2.10627L137.092 4.12172L135.141 6.18005L133.126 4.12172L135.141 2.10627ZM126.693 16.0858C126.35 16.0858 126.114 15.8285 125.986 15.3139C125.843 14.7993 125.843 14.2847 125.986 13.7701C126.114 13.2556 126.35 12.9983 126.693 12.9983H133.383V8.23838L136.084 8.73152V16.0858H126.693ZM140.26 16.9648C139.503 16.8219 138.874 16.4217 138.374 15.7641C137.888 15.1066 137.716 14.4277 137.859 13.7273C138.159 12.2121 138.845 10.8113 139.917 9.52483L139.553 9.35331L140.925 6.67319C143.012 7.17348 144.52 8.23838 145.449 9.86789C146.235 11.2401 146.428 12.6266 146.028 14.0274C145.656 15.3711 144.835 16.2859 143.562 16.7719C142.619 17.1578 141.518 17.2221 140.26 16.9648ZM143.284 12.6767C143.412 12.2621 143.284 11.819 142.898 11.3473C142.526 10.8756 141.99 10.504 141.29 10.2324C141.032 10.4182 140.789 10.6755 140.561 11.0043C140.346 11.3187 140.189 11.6332 140.089 11.9477C139.917 12.548 140.153 13.0197 140.797 13.3628C141.425 13.6772 142.026 13.713 142.598 13.47C142.955 13.3127 143.184 13.0483 143.284 12.6767ZM146.77 20.0309L146.47 18.1012C147.056 18.4014 147.699 18.5801 148.4 18.6372C149.114 18.6944 149.765 18.6372 150.351 18.4657C150.937 18.3085 151.43 18.0512 151.83 17.6938C152.245 17.3365 152.473 16.9363 152.516 16.4931L152.13 8.79584L155.325 7.38074L155.561 15.464C155.604 16.4217 155.468 17.2936 155.154 18.0798C154.853 18.8802 154.41 19.5163 153.824 19.988C153.252 20.4597 152.595 20.7956 151.852 20.9957C151.108 21.2101 150.294 21.2316 149.407 21.0601C148.521 20.9028 147.642 20.5598 146.77 20.0309ZM157.468 20.0523L157.168 18.1012C157.826 18.43 158.54 18.6158 159.312 18.6587C160.084 18.7016 160.77 18.6158 161.371 18.4014C161.971 18.187 162.471 17.8725 162.872 17.458C163.286 17.0435 163.486 16.5861 163.472 16.0858H159.956C158.669 16.0858 157.912 15.4497 157.683 14.1775C157.454 12.9625 157.704 11.6046 158.433 10.1037C159.105 8.68864 159.934 7.75238 160.92 7.29498C161.235 7.15204 161.556 7.08057 161.885 7.08057C162.457 7.08057 162.964 7.19492 163.408 7.42362C163.851 7.63803 164.222 7.95965 164.522 8.38847C164.837 8.81728 165.101 9.28898 165.316 9.80357C165.53 10.3039 165.702 10.9042 165.83 11.6046C165.959 12.305 166.052 12.9768 166.109 13.6201C166.181 14.249 166.238 14.9637 166.281 15.7641C166.309 16.6933 166.166 17.5366 165.852 18.2942C165.537 19.0518 165.087 19.6521 164.501 20.0952C163.929 20.5526 163.272 20.8742 162.528 21.0601C161.785 21.2602 160.97 21.2745 160.084 21.1029C159.212 20.9314 158.34 20.5812 157.468 20.0523ZM160.663 12.9983H163.558C163.515 12.6409 163.429 12.2836 163.3 11.9262C163.172 11.5546 162.979 11.2187 162.721 10.9185C162.464 10.604 162.178 10.4468 161.864 10.4468C161.278 10.4468 160.77 10.7684 160.341 11.4116C159.956 11.9977 159.877 12.448 160.106 12.7624C160.206 12.9197 160.392 12.9983 160.663 12.9983ZM173.964 16.3645L168.26 13.813L169.397 11.0043L175.786 7.38074L175.722 6.56598L178.573 5.90131V12.9983H181.061C181.404 12.9983 181.64 13.2556 181.768 13.7701C181.911 14.2847 181.911 14.7993 181.768 15.3139C181.64 15.8285 181.404 16.0858 181.061 16.0858H176.022L175.979 14.3919L173.964 16.3645ZM174.821 12.9125C175.25 13.084 175.622 13.0411 175.936 12.7839L175.85 9.46051L171.991 11.8619L174.821 12.9125ZM181.609 4.46477L181.524 3.19976L192.694 0.0479377V1.35584L181.609 4.46477ZM180.237 16.0858C179.894 16.0858 179.658 15.8285 179.53 15.3139C179.387 14.7993 179.387 14.2847 179.53 13.7701C179.673 13.2556 179.908 12.9983 180.237 12.9983H190.422C190.336 10.8256 187.513 9.73924 181.952 9.73924L181.609 5.53682L192.694 2.42788L192.459 5.49394L184.633 7.53083C187.134 7.51653 189.192 8.04541 190.808 9.11746C192.437 10.1752 193.252 11.4974 193.252 13.084V16.0858H180.237ZM209.464 16.3645L203.76 13.813L204.897 11.0043L211.286 7.38074L211.222 6.56598L214.073 5.90131V12.9983H216.561C216.904 12.9983 217.14 13.2556 217.268 13.7701C217.411 14.2847 217.411 14.7993 217.268 15.3139C217.14 15.8285 216.904 16.0858 216.561 16.0858H211.522L211.479 14.3919L209.464 16.3645ZM210.321 12.9125C210.75 13.084 211.122 13.0411 211.436 12.7839L211.35 9.46051L207.491 11.8619L210.321 12.9125ZM219.682 1.93474L221.634 3.95019L219.682 6.00852L217.667 3.95019L219.682 1.93474ZM215.845 16.0858C215.501 16.0858 215.266 15.8285 215.137 15.3139C214.994 14.7993 214.994 14.2847 215.137 13.7701C215.28 13.2556 215.516 12.9983 215.845 12.9983H219.682V7.18777L222.384 7.65947V16.0858H215.845ZM224.364 16.6218V1.65601L227.065 2.12771V16.0643L224.364 16.6218ZM228.894 20.0523L228.594 18.1012C229.251 18.43 229.966 18.6158 230.738 18.6587C231.51 18.7016 232.196 18.6158 232.796 18.4014C233.397 18.187 233.897 17.8725 234.297 17.458C234.712 17.0435 234.912 16.5861 234.897 16.0858H231.381C230.095 16.0858 229.337 15.4497 229.108 14.1775C228.88 12.9625 229.13 11.6046 229.859 10.1037C230.531 8.68864 231.36 7.75238 232.346 7.29498C232.66 7.15204 232.982 7.08057 233.311 7.08057C233.883 7.08057 234.39 7.19492 234.833 7.42362C235.276 7.63803 235.648 7.95965 235.948 8.38847C236.263 8.81728 236.527 9.28898 236.741 9.80357C236.956 10.3039 237.127 10.9042 237.256 11.6046C237.385 12.305 237.477 12.9768 237.535 13.6201C237.606 14.249 237.663 14.9637 237.706 15.7641C237.735 16.6933 237.592 17.5366 237.277 18.2942C236.963 19.0518 236.513 19.6521 235.927 20.0952C235.355 20.5526 234.697 20.8742 233.954 21.0601C233.211 21.2602 232.396 21.2745 231.51 21.1029C230.638 20.9314 229.766 20.5812 228.894 20.0523ZM232.089 12.9983H234.983C234.94 12.6409 234.855 12.2836 234.726 11.9262C234.597 11.5546 234.404 11.2187 234.147 10.9185C233.89 10.604 233.604 10.4468 233.289 10.4468C232.703 10.4468 232.196 10.7684 231.767 11.4116C231.381 11.9977 231.302 12.448 231.531 12.7624C231.631 12.9197 231.817 12.9983 232.089 12.9983ZM239.557 20.0523L239.257 18.1012C239.915 18.43 240.629 18.6158 241.401 18.6587C242.173 18.7016 242.859 18.6158 243.46 18.4014C244.06 18.187 244.56 17.8725 244.96 17.458C245.375 17.0435 245.575 16.5861 245.561 16.0858H242.044C240.758 16.0858 240 15.4497 239.772 14.1775C239.543 12.9625 239.793 11.6046 240.522 10.1037C241.194 8.68864 242.023 7.75238 243.009 7.29498C243.324 7.15204 243.645 7.08057 243.974 7.08057C244.546 7.08057 245.053 7.19492 245.496 7.42362C245.94 7.63803 246.311 7.95965 246.611 8.38847C246.926 8.81728 247.19 9.28898 247.405 9.80357C247.619 10.3039 247.791 10.9042 247.919 11.6046C248.048 12.305 248.141 12.9768 248.198 13.6201C248.269 14.249 248.327 14.9637 248.37 15.7641C248.398 16.6933 248.255 17.5366 247.941 18.2942C247.626 19.0518 247.176 19.6521 246.59 20.0952C246.018 20.5526 245.361 20.8742 244.617 21.0601C243.874 21.2602 243.059 21.2745 242.173 21.1029C241.301 20.9314 240.429 20.5812 239.557 20.0523ZM242.752 12.9983H245.647C245.604 12.6409 245.518 12.2836 245.389 11.9262C245.261 11.5546 245.068 11.2187 244.81 10.9185C244.553 10.604 244.267 10.4468 243.953 10.4468C243.367 10.4468 242.859 10.7684 242.43 11.4116C242.044 11.9977 241.966 12.448 242.195 12.7624C242.295 12.9197 242.48 12.9983 242.752 12.9983ZM254.251 1.52736L256.203 3.54281L254.251 5.60114L252.236 3.54281L254.251 1.52736ZM249.149 20.0309L248.848 18.1012C249.434 18.4014 250.078 18.5801 250.778 18.6372C251.493 18.6944 252.143 18.6372 252.729 18.4657C253.315 18.3085 253.808 18.0512 254.209 17.6938C254.623 17.3365 254.852 16.9363 254.895 16.4931L254.509 8.79584L257.703 7.38074L257.939 15.464C257.982 16.4217 257.846 17.2936 257.532 18.0798C257.232 18.8802 256.789 19.5163 256.203 19.988C255.631 20.4597 254.973 20.7956 254.23 20.9957C253.487 21.2101 252.672 21.2316 251.786 21.0601C250.9 20.9028 250.02 20.5598 249.149 20.0309ZM268.586 23.44V15.9571L270.216 12.9983H272.381C272.395 12.5123 272.51 11.9762 272.724 11.3902C272.939 10.7899 273.224 10.2181 273.582 9.67492C273.939 9.11746 274.397 8.6529 274.954 8.28126C275.526 7.90962 276.133 7.7238 276.777 7.7238C277.463 7.7238 278.127 8.03112 278.771 8.64576C279.414 9.2604 279.907 10.0394 280.25 10.9828C280.593 11.9119 280.693 12.7982 280.55 13.6415L280.078 16.6432L271.288 16.0858L271.502 22.1107L268.586 23.44ZM277.656 13.3413C277.656 12.8696 277.584 12.4408 277.441 12.0549C277.313 11.6689 277.134 11.3616 276.905 11.1329C276.691 10.9042 276.448 10.7327 276.176 10.6183C275.905 10.4897 275.626 10.4539 275.34 10.5111C275.068 10.5683 274.811 10.6826 274.568 10.8542C274.339 11.0257 274.139 11.2973 273.968 11.6689C273.811 12.0263 273.71 12.4551 273.668 12.9554L277.656 13.3413ZM288.202 16.3645L282.499 13.813L283.635 11.0043L290.025 7.38074L289.96 6.56598L292.812 5.90131V12.9983H295.299C295.642 12.9983 295.878 13.2556 296.007 13.7701C296.149 14.2847 296.149 14.7993 296.007 15.3139C295.878 15.8285 295.642 16.0858 295.299 16.0858H290.26L290.217 14.3919L288.202 16.3645ZM289.06 12.9125C289.488 13.084 289.86 13.0411 290.175 12.7839L290.089 9.46051L286.229 11.8619L289.06 12.9125ZM294.583 16.0858C294.24 16.0858 294.004 15.8285 293.875 15.3139C293.732 14.7993 293.732 14.2847 293.875 13.7701C294.018 13.2556 294.254 12.9983 294.583 12.9983H298.421V7.18777L301.122 7.65947V16.0858H294.583ZM297.627 17.6938L299.579 19.7093L297.627 21.7676L295.612 19.7093L297.627 17.6938ZM6.26932 40.3498L8.22045 42.3653L6.26932 44.4236L4.25387 42.3653L6.26932 40.3498ZM6.76246 59.3465C5.77618 59.3465 4.88281 59.1678 4.08234 58.8105C3.28188 58.4531 2.63151 57.9814 2.13122 57.3954C1.63093 56.8236 1.22355 56.1518 0.909084 55.3799C0.608911 54.6224 0.437384 53.8362 0.394502 53.0214C0.35162 52.221 0.415943 51.4205 0.58747 50.6201C0.773292 49.8053 1.06632 49.062 1.46655 48.3902L3.73929 47.5111C3.26759 48.2115 2.93883 48.9548 2.75301 49.741C2.58148 50.5271 2.56004 51.2704 2.68868 51.9708C2.81733 52.6569 3.05318 53.2859 3.39623 53.8576C3.75358 54.4294 4.22528 54.8797 4.81134 55.2084C5.39739 55.5515 6.04062 55.7301 6.74102 55.7444C7.87024 55.7587 8.79221 55.5014 9.5069 54.9726C10.2216 54.4437 10.679 53.7361 10.8791 52.8499C11.0935 51.9637 11.0435 50.9131 10.729 49.6981C10.4146 48.4831 9.84281 47.2252 9.01376 45.9245L11.9512 44.6809C12.7659 46.239 13.3377 47.7613 13.6664 49.2478C13.9952 50.7344 14.0667 52.078 13.8809 53.2787C13.7093 54.4794 13.3305 55.5372 12.7445 56.452C12.1727 57.3811 11.3723 58.0958 10.3431 58.5961C9.31393 59.0964 8.12039 59.3465 6.76246 59.3465ZM15.8649 53.0858V38.656L18.5879 39.1277V49.9983H22.19C22.5331 49.9983 22.7689 50.2556 22.8976 50.7701C23.0405 51.2847 23.0405 51.7993 22.8976 52.3139C22.7689 52.8285 22.5331 53.0858 22.19 53.0858H15.8649ZM25.6467 39.4708L27.5979 41.4862L25.6467 43.5445L23.6313 41.4862L25.6467 39.4708ZM30.0207 39.4708L31.9718 41.4862L30.0207 43.5445L28.0052 41.4862L30.0207 39.4708ZM21.4443 53.0858C21.1156 53.0858 20.8868 52.8285 20.7582 52.3139C20.6153 51.7993 20.6153 51.2847 20.7582 50.7701C20.8868 50.2556 21.1156 49.9983 21.4443 49.9983H26.3972V45.2598L29.0987 45.753V49.9983H33.5156C33.8443 50.0269 34.073 50.2913 34.2017 50.7916C34.3303 51.2919 34.3303 51.7922 34.2017 52.2924C34.073 52.7927 33.8443 53.0572 33.5156 53.0858H21.4443ZM32.6129 53.0858C32.2698 53.0858 32.034 52.8285 31.9053 52.3139C31.7624 51.7993 31.7624 51.2847 31.9053 50.7701C32.034 50.2556 32.2698 49.9983 32.6129 49.9983H35.9362L35.0571 45.4957L38.2304 44.6166L38.8093 49.9983H41.275L40.3959 45.2813L43.5692 44.4022L44.1052 49.9983H46.5495L45.6704 45.0669L48.8222 44.1878L49.3797 50.084L49.0366 53.0858H32.6129ZM52.5828 53.4717C51.7395 53.5146 51.3178 53.243 51.3178 52.6569V48.9048H52.1969C52.1969 49.2192 52.347 49.5123 52.6471 49.7839C52.9616 50.0554 53.2761 50.1841 53.5905 50.1698L58.2003 49.9768L56.1849 44.5737L58.9936 42.1294L61.3093 50.0626L61.2878 53.0858L52.5828 53.4717ZM62.062 57.0309L61.7618 55.1012C62.3478 55.4014 62.9911 55.5801 63.6915 55.6372C64.4062 55.6944 65.0566 55.6372 65.6426 55.4657C66.2287 55.3085 66.7218 55.0512 67.122 54.6938C67.5366 54.3365 67.7653 53.9363 67.8081 53.4931L67.4222 45.7958L70.6169 44.3807L70.8528 52.464C70.8956 53.4217 70.7598 54.2936 70.4454 55.0798C70.1452 55.8802 69.7021 56.5163 69.116 56.988C68.5443 57.4597 67.8868 57.7956 67.1435 57.9957C66.4002 58.2101 65.5854 58.2316 64.6992 58.0601C63.813 57.9028 62.9339 57.5598 62.062 57.0309ZM83.5022 49.9983C83.8452 49.9983 84.0811 50.2556 84.2097 50.7701C84.3527 51.2847 84.3527 51.7993 84.2097 52.3139C84.0811 52.8285 83.8452 53.0858 83.5022 53.0858H81.5725C81.5582 53.972 81.3795 54.7725 81.0365 55.4871C80.7077 56.2018 80.2503 56.7736 79.6642 57.2024C79.0925 57.6312 78.4421 57.9243 77.7131 58.0815C76.9841 58.253 76.1837 58.2459 75.3117 58.0601C74.4541 57.8885 73.6036 57.5455 72.7602 57.0309L72.4601 55.1012C73.1176 55.43 73.8251 55.6158 74.5827 55.6587C75.3546 55.7016 76.0407 55.6158 76.6411 55.4014C77.2557 55.2013 77.7631 54.894 78.1634 54.4794C78.5779 54.0649 78.778 53.6003 78.7637 53.0858H75.2474C73.9609 53.0858 73.1962 52.4497 72.9532 51.1775C72.7388 49.9625 72.9889 48.6046 73.7036 47.1037C74.3898 45.6886 75.226 44.7524 76.2122 44.295C76.541 44.152 76.8626 44.0806 77.1771 44.0806C78.3349 44.0806 79.2497 44.5666 79.9215 45.5386C80.6076 46.4962 81.0865 47.9828 81.3581 49.9983H83.5022ZM75.9549 49.9983H78.8495C78.7637 49.3979 78.5707 48.8262 78.2706 48.283C77.9847 47.7255 77.613 47.4468 77.1556 47.4468C76.5696 47.4468 76.055 47.7684 75.6119 48.4116C75.226 48.9977 75.1473 49.448 75.376 49.7624C75.4904 49.9197 75.6834 49.9983 75.9549 49.9983ZM82.6852 53.0858C82.3422 53.0858 82.1063 52.8285 81.9777 52.3139C81.8347 51.7993 81.8347 51.2847 81.9777 50.7701C82.1206 50.2556 82.3565 49.9983 82.6852 49.9983H92.8697C92.7839 47.8256 89.9609 46.7392 84.4005 46.7392L84.0575 42.5368L95.1424 39.4279L94.9066 42.4939L87.0592 44.4236C88.6887 44.4522 90.161 44.7166 91.476 45.2169C92.7911 45.7029 93.8202 46.3747 94.5635 47.2324C95.3211 48.09 95.6999 49.0406 95.6999 50.084V53.0858H82.6852ZM106.08 57.0523L105.78 55.1012C106.437 55.43 107.152 55.6158 107.924 55.6587C108.696 55.7016 109.382 55.6158 109.982 55.4014C110.582 55.187 111.083 54.8725 111.483 54.458C111.897 54.0435 112.098 53.5861 112.083 53.0858H108.567C107.28 53.0858 106.523 52.4497 106.294 51.1775C106.065 49.9625 106.316 48.6046 107.045 47.1037C107.716 45.6886 108.545 44.7524 109.532 44.295C109.846 44.152 110.168 44.0806 110.497 44.0806C111.068 44.0806 111.576 44.1949 112.019 44.4236C112.462 44.638 112.834 44.9596 113.134 45.3885C113.448 45.8173 113.713 46.289 113.927 46.8036C114.142 47.3039 114.313 47.9042 114.442 48.6046C114.57 49.305 114.663 49.9768 114.72 50.6201C114.792 51.249 114.849 51.9637 114.892 52.7641C114.921 53.6933 114.778 54.5366 114.463 55.2942C114.149 56.0518 113.698 56.6521 113.112 57.0952C112.541 57.5526 111.883 57.8742 111.14 58.0601C110.397 58.2602 109.582 58.2745 108.696 58.1029C107.824 57.9314 106.952 57.5812 106.08 57.0523ZM109.274 49.9983H112.169C112.126 49.6409 112.04 49.2836 111.912 48.9262C111.783 48.5546 111.59 48.2187 111.333 47.9185C111.075 47.604 110.79 47.4468 110.475 47.4468C109.889 47.4468 109.382 47.7684 108.953 48.4116C108.567 48.9977 108.488 49.448 108.717 49.7624C108.817 49.9197 109.003 49.9983 109.274 49.9983ZM132.129 38.463L134.08 40.4785L132.129 42.5368L130.114 40.4785L132.129 38.463ZM136.503 38.463L138.454 40.4785L136.503 42.5368L134.487 40.4785L136.503 38.463ZM132.043 59.3465C131.071 59.3322 130.185 59.1393 129.385 58.7676C128.584 58.4103 127.919 57.9386 127.391 57.3525C126.876 56.7808 126.454 56.1089 126.126 55.3371C125.811 54.5795 125.618 53.8005 125.547 53C125.489 52.1995 125.539 51.3991 125.697 50.5986C125.868 49.7839 126.154 49.0477 126.554 48.3902L128.827 47.5111C128.355 48.1829 128.048 48.9262 127.905 49.741C127.762 50.5557 127.784 51.3348 127.969 52.078C128.155 52.8213 128.441 53.5074 128.827 54.1364C129.227 54.7653 129.742 55.2656 130.371 55.6372C131 56.0089 131.672 56.1947 132.386 56.1947C133.415 56.1661 134.259 55.8516 134.916 55.2513C135.588 54.651 135.895 53.9291 135.838 53.0858H132.301C131.014 53.0858 130.256 52.4497 130.028 51.1775C129.813 49.9768 130.078 48.6189 130.821 47.1037C131.522 45.6743 132.365 44.7381 133.351 44.295C133.909 44.052 134.452 44.0162 134.981 44.1878C135.524 44.3736 135.996 44.6309 136.396 44.9596C136.81 45.2884 137.146 45.6815 137.403 46.1389C137.675 46.5963 137.889 47.0752 138.047 47.5754C138.218 48.0614 138.347 48.6332 138.433 49.2907C138.518 49.9339 138.576 50.5343 138.604 51.0918C138.633 51.6349 138.647 52.2639 138.647 52.9786C138.647 55.0083 138.075 56.5735 136.932 57.6741C135.788 58.7891 134.159 59.3465 132.043 59.3465ZM133.008 49.9983H135.903C135.817 49.3979 135.624 48.8262 135.324 48.283C135.038 47.7255 134.666 47.4468 134.209 47.4468C133.623 47.4468 133.108 47.7684 132.665 48.4116C132.279 48.9977 132.2 49.448 132.429 49.7624C132.544 49.9197 132.736 49.9983 133.008 49.9983ZM140.932 53.6218V38.656L143.634 39.1277V53.0643L140.932 53.6218ZM155.346 49.9983C155.69 49.9983 155.925 50.2556 156.054 50.7701C156.197 51.2847 156.197 51.7993 156.054 52.3139C155.925 52.8285 155.69 53.0858 155.346 53.0858H153.181C153.138 54.1864 152.852 55.1441 152.323 55.9589C151.794 56.7736 151.123 57.3668 150.308 57.7384C149.507 58.1101 148.578 58.2459 147.521 58.1458C146.477 58.0458 145.434 57.6741 144.39 57.0309L144.09 55.1012C144.676 55.4014 145.319 55.5801 146.02 55.6372C146.734 55.6944 147.385 55.6372 147.971 55.4657C148.557 55.3085 149.05 55.0512 149.45 54.6938C149.865 54.3365 150.093 53.9363 150.136 53.4931L149.75 45.7958L152.945 44.3807L153.117 49.9983H155.346ZM158.369 40.7358L159.034 39.4708L160.835 41.6792L162.636 39.4708L163.3 40.7358L160.835 43.6089L158.369 40.7358ZM154.51 53.0858C154.181 53.0858 153.952 52.8285 153.824 52.3139C153.681 51.7993 153.681 51.2847 153.824 50.7701C153.952 50.2556 154.181 49.9983 154.51 49.9983H159.463V45.2598L162.164 45.753V49.9983H166.581C166.91 50.0269 167.138 50.2913 167.267 50.7916C167.396 51.2919 167.396 51.7922 167.267 52.2924C167.138 52.7927 166.91 53.0572 166.581 53.0858H154.51ZM158.498 54.651L160.449 56.6664L158.498 58.7247L156.482 56.6664L158.498 54.651ZM162.872 54.651L164.823 56.6664L162.872 58.7247L160.856 56.6664L162.872 54.651ZM165.485 53.0858C165.142 53.0858 164.906 52.8285 164.778 52.3139C164.635 51.7993 164.635 51.2847 164.778 50.7701C164.906 50.2556 165.142 49.9983 165.485 49.9983H169.452C168.737 48.9548 168.373 47.9328 168.358 46.9322C168.358 45.9173 168.701 45.0669 169.387 44.3807C170.088 43.6946 171.124 43.2301 172.496 42.9871C173.869 42.7298 175.577 42.837 177.621 43.3087L178.114 45.1312C175.041 44.9454 173.097 45.2813 172.282 46.1389C171.482 46.9822 171.882 48.2687 173.483 49.9983H180.237L179.872 53.0858H165.485ZM196.234 53.3645L190.531 50.813L191.667 48.0043L198.057 44.3807L197.992 43.566L200.844 42.9013V49.9983H203.331C203.674 49.9983 203.91 50.2556 204.039 50.7701C204.182 51.2847 204.182 51.7993 204.039 52.3139C203.91 52.8285 203.674 53.0858 203.331 53.0858H198.293L198.25 51.3919L196.234 53.3645ZM197.092 49.9125C197.521 50.084 197.892 50.0411 198.207 49.7839L198.121 46.4605L194.262 48.8619L197.092 49.9125ZM202.508 53.0858C202.165 53.0858 201.929 52.8285 201.8 52.3139C201.657 51.7993 201.657 51.2847 201.8 50.7701C201.943 50.2556 202.179 49.9983 202.508 49.9983H205.231V38.6774L207.932 39.1492V53.0858H202.508ZM246.111 49.9983C246.454 49.9983 246.69 50.2556 246.819 50.7701C246.962 51.2847 246.962 51.7993 246.819 52.3139C246.69 52.8285 246.454 53.0858 246.111 53.0858H231.982C231.782 55.044 231.053 56.5735 229.795 57.6741C228.537 58.7891 226.886 59.3465 224.842 59.3465C223.856 59.3465 222.962 59.1678 222.162 58.8105C221.361 58.4531 220.711 57.9814 220.211 57.3954C219.71 56.8236 219.303 56.1518 218.988 55.3799C218.688 54.6224 218.517 53.8362 218.474 53.0214C218.431 52.221 218.495 51.4205 218.667 50.6201C218.853 49.8053 219.146 49.062 219.546 48.3902L221.819 47.5111C221.347 48.2115 221.018 48.9548 220.832 49.741C220.661 50.5271 220.639 51.2704 220.768 51.9708C220.897 52.6569 221.133 53.2859 221.476 53.8576C221.833 54.4294 222.305 54.8797 222.891 55.2084C223.477 55.5515 224.12 55.7301 224.82 55.7444C225.95 55.7587 226.872 55.5014 227.586 54.9726C228.301 54.4437 228.758 53.7361 228.958 52.8499C229.173 51.9637 229.123 50.9131 228.808 49.6981C228.494 48.4831 227.922 47.2252 227.093 45.9245L230.031 44.6809C230.988 46.5248 231.596 48.2973 231.853 49.9983H234.726L233.868 45.2813L237.042 44.4022L237.578 49.9983H240.001L239.143 45.0669L242.295 44.1878L242.852 49.9983H246.111ZM260.143 49.9983C260.486 49.9983 260.722 50.2556 260.851 50.7701C260.994 51.2847 260.994 51.7993 260.851 52.3139C260.722 52.8285 260.486 53.0858 260.143 53.0858H245.135C244.791 53.0858 244.556 52.8285 244.427 52.3139C244.284 51.7993 244.284 51.2847 244.427 50.7701C244.57 50.2556 244.806 49.9983 245.135 49.9983H254.59H255.319C255.233 47.8256 252.41 46.7392 246.85 46.7392L246.507 42.5368L257.592 39.4279L257.356 42.4939L249.53 44.5308C252.003 44.5165 254.047 45.0383 255.662 46.096C257.292 47.1395 258.121 48.4402 258.149 49.9983H260.143ZM263.21 40.3713L263.875 39.1063L265.676 41.3147L267.477 39.1063L268.142 40.3713L265.676 43.2444L263.21 40.3713ZM259.479 53.0858C259.136 53.0858 258.901 52.8285 258.772 52.3139C258.629 51.7993 258.629 51.2847 258.772 50.7701C258.901 50.2556 259.136 49.9983 259.479 49.9983H266.169V45.2384L268.871 45.7315V53.0858H259.479ZM262.546 54.651L264.497 56.6664L262.546 58.7247L260.53 56.6664L262.546 54.651ZM266.919 54.651L268.871 56.6664L266.919 58.7247L264.904 56.6664L266.919 54.651ZM269.638 57.0309L269.337 55.1012C269.923 55.4014 270.567 55.5801 271.267 55.6372C271.982 55.6944 272.632 55.6372 273.218 55.4657C273.804 55.3085 274.297 55.0512 274.698 54.6938C275.112 54.3365 275.341 53.9363 275.384 53.4931L274.998 45.7958L278.192 44.3807L278.428 52.464C278.471 53.4217 278.335 54.2936 278.021 55.0798C277.721 55.8802 277.278 56.5163 276.692 56.988C276.12 57.4597 275.462 57.7956 274.719 57.9957C273.976 58.2101 273.161 58.2316 272.275 58.0601C271.389 57.9028 270.509 57.5598 269.638 57.0309ZM270.967 60.6973L271.632 59.4323L273.433 61.6407L275.234 59.4323L275.898 60.6973L273.433 63.5704L270.967 60.6973ZM282.48 39.921L283.145 38.656L284.946 40.8644L286.747 38.656L287.411 39.921L284.946 42.7941L282.48 39.921ZM291.078 49.9983C291.421 49.9983 291.657 50.2556 291.785 50.7701C291.928 51.2847 291.928 51.7993 291.785 52.3139C291.657 52.8285 291.421 53.0858 291.078 53.0858H289.148C289.134 53.972 288.955 54.7725 288.612 55.4871C288.283 56.2018 287.826 56.7736 287.24 57.2024C286.668 57.6312 286.018 57.9243 285.289 58.0815C284.56 58.253 283.759 58.2459 282.887 58.0601C282.03 57.8885 281.179 57.5455 280.336 57.0309L280.036 55.1012C280.693 55.43 281.401 55.6158 282.158 55.6587C282.93 55.7016 283.616 55.6158 284.217 55.4014C284.831 55.2013 285.339 54.894 285.739 54.4794C286.153 54.0649 286.354 53.6003 286.339 53.0858H282.823C281.536 53.0858 280.772 52.4497 280.529 51.1775C280.314 49.9625 280.565 48.6046 281.279 47.1037C281.965 45.6886 282.802 44.7524 283.788 44.295C284.117 44.152 284.438 44.0806 284.753 44.0806C285.91 44.0806 286.825 44.5666 287.497 45.5386C288.183 46.4962 288.662 47.9828 288.934 49.9983H291.078ZM283.531 49.9983H286.425C286.339 49.3979 286.146 48.8262 285.846 48.283C285.56 47.7255 285.189 47.4468 284.731 47.4468C284.145 47.4468 283.631 47.7684 283.187 48.4116C282.802 48.9977 282.723 49.448 282.952 49.7624C283.066 49.9197 283.259 49.9983 283.531 49.9983ZM297.1 37.0908L299.052 39.1063L297.1 41.1646L295.085 39.1063L297.1 37.0908ZM290.261 53.0858C289.918 53.0858 289.682 52.8285 289.553 52.3139C289.41 51.7993 289.41 51.2847 289.553 50.7701C289.696 50.2556 289.932 49.9983 290.261 49.9983H294.292C293.891 49.6695 293.663 49.1978 293.606 48.5832C293.563 47.9542 293.677 47.3039 293.949 46.632C294.22 45.9459 294.578 45.2956 295.021 44.6809C295.464 44.052 295.993 43.5374 296.607 43.1372C297.236 42.7226 297.851 42.5154 298.451 42.5154C299.395 42.5154 300.209 42.9513 300.896 43.8233C301.596 44.6952 302.082 45.7101 302.353 46.8679C302.625 48.0114 302.704 49.0835 302.589 50.084L302.246 53.0858H290.261ZM299.716 49.9339C299.788 48.8905 299.652 47.9113 299.309 46.9965C298.98 46.0817 298.587 45.6243 298.13 45.6243C297.815 45.6386 297.501 45.803 297.186 46.1175C296.886 46.4319 296.686 46.7678 296.586 47.1252C296.486 47.4825 296.507 47.7899 296.65 48.0471L299.716 49.9339Z" fill="black"/>
</svg>
