<svg width="25" height="26" viewBox="0 0 25 26" fill="none" xmlns="http://www.w3.org/2000/svg">
<g clip-path="url(#clip0_582_1016)">
<path d="M14.5893 15.8169C13.9673 16.2316 13.2449 16.4508 12.5 16.4508C11.7552 16.4508 11.0327 16.2316 10.4107 15.8169L0.166455 8.98721C0.109619 8.94932 0.054248 8.90981 0 8.86919V20.0604C0 21.3436 1.04126 22.3619 2.30142 22.3619H22.6985C23.9816 22.3619 25 21.3206 25 20.0604V8.86914C24.9456 8.90986 24.8901 8.94946 24.8332 8.9874L14.5893 15.8169Z" fill="black"/>
<path d="M0.979004 7.76841L11.2233 14.5982C11.6111 14.8567 12.0555 14.986 12.5 14.986C12.9444 14.986 13.3889 14.8567 13.7767 14.5982L24.021 7.76841C24.634 7.35996 25 6.67637 25 5.93857C25 4.66997 23.9679 3.63794 22.6994 3.63794H2.30063C1.03208 3.63799 0 4.67002 0 5.93979C0 6.67637 0.366016 7.35996 0.979004 7.76841Z" fill="black"/>
</g>
<defs>
<clipPath id="clip0_582_1016">
<rect width="25" height="25" fill="white" transform="translate(0 0.5)"/>
</clipPath>
</defs>
</svg>
