<?xml version="1.0" encoding="utf-8"?>
<!-- Generator: Adobe Illustrator 27.0.0, SVG Export Plug-In . SVG Version: 6.00 Build 0)  -->
<svg version="1.1" id="Layer_1" xmlns="http://www.w3.org/2000/svg" xmlns:xlink="http://www.w3.org/1999/xlink" x="0px" y="0px"
	 viewBox="0 0 1400 800" style="enable-background:new 0 0 1400 800;" xml:space="preserve">
<style type="text/css">
	.st0{fill-rule:evenodd;clip-rule:evenodd;fill:#CBAA5C;}
	.st1{fill:#CBAA5C;}
	.st2{fill:#232323;}
	.st3{fill:#FFFFFF;}
	.st4{fill:#030708;}
	.st5{fill-rule:evenodd;clip-rule:evenodd;fill:#232323;}
	.st6{fill:#1C1C1C;}
	.st7{fill:url(#);}
</style>
<g>
	<g>
		<g>
			<g>
				<path class="st0" d="M927,298.66c2.4,2.98,4.28,6.6,5.11,10.68c1.12,5.28-2.38,11.82-5.59,15.73c-3.21,4.07-9.19,5.68-13.45,2.8
					c-4.26-2.88-6.99-10.08-10.81-15.65c-2.23-3.13-4.81-5.77-7.43-7.74c-14.69-11.43-33.39-4.46-51.62-8.11
					c-12.72-2.57-25.38-10.37-30.99-21.07c-3.45-6.22-4.32-13.51-4.95-18.27c-0.22-2.71-0.48-4.74-1.71-15.43
					c-1.47,6.85-2.95,13.71-2.92,20.97c0,8.1,1.49,16.6,5.57,23.52c6.13,10.55,17.8,17.97,30.69,20.38
					c18.41,3.48,39.28-3.05,51.79,8.12c2.28,1.96,4.36,4.57,5.93,7.51c3.15,5.2,5.42,11.2,9.83,14.59
					c6.06,4.48,16.04,3.72,22.98-0.7c6.08-3.96,9.59-11.07,10.3-19.64c0.42-6.06-0.46-12.84-4.84-20.96l-65.15-78.73
					c5.61-4.82,11.23-9.82,15.86-15.52c3.93-4.9,7.03-10.5,10.3-15.93c-9.52,1.79-19.05,3.4-29.15,3.14
					c-7.59-0.15-15.3-1.5-21.81,0.93c-5.49,1.96-10.08,6.65-14.49,11.36c-10.88-2.15-21.58-4.47-32.08-3.74
					c-15.73,0.85-30.9,8.47-47.06,11.32c-8.68,1.65-17.63,1.94-25.81-0.26c-5.5-1.58-10.62-4.17-15.74-6.75
					c3.2,4.02,6.57,8.21,10.67,10.92c5.25,3.43,11.76,5.06,18.32,5.68c9.59,0.75,18.9-0.21,27.96-2.69
					c9.2-2.3,18.16-6.31,27.16-7.61c13.07-1.81,26.6,1.47,39.95,4.74c3.42-4.75,6.65-9.33,11.49-12c2.43-1.41,5.49-2.13,8.38-2.51
					c7.13-1.04,14.2-0.41,21.25,0.4c-2.29,2.27-4.59,4.7-7.05,6.95c-4.05,3.71-8.25,7.41-12.29,11.12l70.14,80.85
					C926.19,297.62,926.68,298.14,927,298.66L927,298.66z"/>
				<path class="st0" d="M717.6,244.33c8.31-4.62,16.61-8.33,25.39-11.8c12.23-4.9,25.6-7.68,38.79-10.47
					c-11.99-1.03-23.81-1.85-35.27-0.06c-15.96,2.41-30.82,10.47-46.28,16.45c-13.34,4.82-26.96,8.51-40.74,9.04
					c-15.64,0.58-31.39-2.57-47.13-5.89c13.49,6.32,27.17,11.58,41.79,15.02c11.33,2.64,23.54,3.32,34.67,0.75
					C699.03,254.92,708.31,249.63,717.6,244.33L717.6,244.33z"/>
				<path class="st0" d="M768.1,361.04c12.77-19.37,24.4-48.14,42-62.89c-18.93,9.24-32.53,32.52-48.16,46.82
					c-12.32-20.25-37.63-27.95-58.98-18.71c17.16-1.32,37.42,7.26,46.44,22.01c9.02,14.96,8.8,33.68-0.66,48.2
					c46.66-6.6,93.98-3.97,139.53,8.14c-38.08-16.07-79.01-24.65-120.17-25.75C769.21,372.92,769.21,366.98,768.1,361.04
					L768.1,361.04z"/>
				<path class="st0" d="M600.06,322.64c10.95-6.36,22.15-12.94,33.75-17.78c16.15-6.83,33.89-10.87,51.38-14.91
					c-16-1.07-31.76-1.87-46.96,0.81c-21.17,3.61-40.75,14.71-61.18,23.05c-17.63,6.75-35.68,12-54,13.04
					c-20.8,1.16-41.85-2.63-62.88-6.67c18.1,8.09,36.21,16.17,55.75,20.39c15.15,3.24,31.41,3.83,46.17,0.14
					C575.6,337.19,587.83,329.91,600.06,322.64L600.06,322.64z"/>
				<path class="st0" d="M677.2,277.57c7.65-2.33,15.49-4.78,23.32-6.08c10.92-1.87,22.41-1.81,33.76-1.78
					c-9.69-2.96-19.27-5.72-29-6.26c-13.55-0.83-27.19,3.18-40.96,5.37c-11.82,1.62-23.68,2.25-35.1,0.25
					c-12.96-2.28-25.36-7.64-37.72-13.15c9.97,7.58,19.95,15.16,31.36,20.56c8.86,4.17,18.78,6.87,28.39,6.73
					C660.07,283.01,668.64,280.29,677.2,277.57L677.2,277.57z"/>
			</g>
		</g>
		<path class="st1" d="M460.17,540.83v-2.39h3.27c3.53,0,5.16-1.01,6.8-3.15c1.13-1.39,1.64-4.66,1.64-9.95v-57.06
			c0-5.29-0.63-8.57-1.64-9.95c-1.76-2.14-3.27-3.27-6.93-3.27h-3.15v-2.27h25.7h14.11c0,0,34.77-1.89,34.77,23.05
			c0,0,1.39,14.11-15.62,19.9c0,0,18.77,3.65,18.77,21.41c0,17.63-15.75,23.68-37.91,23.68h-14.11H460.17z M485.87,534.53h12.22
			c7.18,0,25.95-0.76,25.95-17c0-7.18-4.03-19.65-19.65-19.65v-5.79c7.94,0,17.51-1.39,17.51-16.12c0-17.38-15.37-17.38-23.81-17.38
			h-12.22V534.53z"/>
		<path class="st1" d="M574.8,540.83h-19.27v-2.39h3.27c3.53,0,5.16-1.01,6.8-3.15c1.13-1.39,1.64-4.66,1.64-9.95v-57.06
			c0-5.29-0.63-8.57-1.64-9.95c-1.76-2.14-3.27-3.27-6.93-3.27h-3.15v-2.27h25.82v81.75h45.85v6.3h-45.85H574.8z"/>
		<path class="st1" d="M733.3,538.49h3.08v2.34h-36.82v-2.34h3.2c9.85,0,9.24-6.9,7.51-12.44l-22.29-53.57l-23.03,53.2
			c-2.09,5.17,2.71,12.81,8.37,12.81h3.08v2.34h-30.54v-2.34h3.08c3.45,0,7.76-7.76,10.1-12.44l31.03-73.27h2.71l30.91,74.26
			C725.54,531.35,728.86,538.49,733.3,538.49z"/>
		<path class="st1" d="M794.92,540.83c-24.54,0-44.38-19.73-44.38-44.02c0-24.3,19.85-44.02,44.38-44.02
			c4.93,0,9.02,0.84,12.51,2.41c6.5,3.01,14.31,7.7,14.31-2.41h2.16v21.65h-4.09c-5.41-11.91-13.11-17.2-24.9-17.2
			c-17.68,0-32.36,15.28-32.36,39.57c0,24.3,14.67,39.69,32.36,39.69c11.79,0,21.29-7.58,26.7-19.49l4.69,2.05
			C819.22,532.77,810.44,540.83,794.92,540.83z"/>
		<path class="st1" d="M913.5,463.99c5.29-4.03,4.03-8.94-1.76-8.94h-3.15v-2.27h31.24v2.27h-1.64c-5.54,0-39.93,25.7-54.04,36.4
			l37.03,37.79c3.27,3.4,13.48,9.2,18.01,9.2h0.61v2.39h-35.12v-2.39h1.51c5.92,0-0.75-6.17-5.54-10.83l-29.1-29.6v42.83h-25.82
			v-2.39h3.27c3.53,0,5.17-1.01,6.8-3.15c1.13-1.39,1.64-4.66,1.64-9.95v-57.06c0-5.29-0.63-8.57-1.64-9.95
			c-1.76-2.14-3.28-3.27-6.93-3.27h-3.15v-2.27h25.82v41.95L913.5,463.99z"/>
		<path class="st1" d="M542.8,570.11c2.5,0,4.58,0.43,6.35,1.22c3.3,1.53,7.26,3.91,7.26-1.22h1.1v10.98h-2.07
			c-2.75-6.04-6.65-8.73-12.63-8.73c-8.97,0-12.69,8.91,1.83,16.35c21.23,10.43,13.97,25.81-1.53,25.81c-2.68,0-4.58-0.37-6.35-1.1
			c-3.36-1.46-7.32-3.78-7.2,1.34h-1.16l-0.18-10.98h2.07c2.87,5.98,6.89,8.48,12.81,8.48c8.24,0,13.55-10.98-3.91-18.86
			C522.12,585.19,530.35,570.11,542.8,570.11z"/>
		<path class="st1" d="M608.99,570.11v2.94h-17.64v33.87c0,2.68,0.26,4.35,0.83,5.05c0.83,1.09,1.66,1.6,3.45,1.6h1.66v1.21h-19.11
			v-1.21h1.66c1.79,0,2.62-0.51,3.45-1.6c0.58-0.7,0.83-2.36,0.83-5.05v-33.87H566.5v-2.94H608.99z"/>
		<path class="st1" d="M652.25,613.59h1.56v1.19h-18.68v-1.19h1.62c5,0,4.69-3.5,3.81-6.31l-11.31-27.17l-11.68,26.99
			c-1.06,2.62,1.37,6.5,4.25,6.5h1.56v1.19H607.9v-1.19h1.56c1.75,0,3.94-3.94,5.12-6.31l15.74-37.17h1.37l15.68,37.67
			C648.31,609.97,650,613.59,652.25,613.59z"/>
		<path class="st1" d="M671.93,614.78h-9.78v-1.21h1.66c1.79,0,2.62-0.51,3.45-1.6c0.57-0.7,0.83-2.36,0.83-5.05v-28.95
			c0-2.68-0.32-4.35-0.83-5.05c-0.9-1.09-1.66-1.66-3.51-1.66h-1.6v-1.15h13.1v41.47h23.26v3.19h-23.26H671.93z"/>
		<path class="st1" d="M716.22,614.78h-9.78v-1.21h1.66c1.79,0,2.62-0.51,3.45-1.6c0.58-0.7,0.83-2.36,0.83-5.05v-28.95
			c0-2.68-0.32-4.35-0.83-5.05c-0.9-1.09-1.66-1.66-3.52-1.66h-1.6v-1.15h13.1v41.47h23.26v3.19h-23.26H716.22z"/>
		<path class="st1" d="M770.1,571.26h-1.66c-1.79,0-2.62,0.58-3.45,1.66c-0.58,0.7-0.83,2.36-0.83,5.05l-0.06,28.95
			c0,2.68,0.32,4.35,0.83,5.05c0.9,1.09,1.66,1.6,3.51,1.6h1.6v1.21h-19.11v-1.21h1.66c1.79,0,2.62-0.51,3.45-1.6
			c0.58-0.7,0.83-2.36,0.83-5.05v-28.95c0-2.68-0.32-4.35-0.83-5.05c-0.89-1.09-1.66-1.66-3.51-1.66h-1.6v-1.15h19.17V571.26z"/>
		<path class="st1" d="M801.68,570.11c12.39,0,22.52,10.01,22.52,22.33s-10.13,22.33-22.52,22.33c-12.45,0-22.52-10.01-22.52-22.33
			S789.24,570.11,801.68,570.11z M801.5,612.58c8.97,0,16.23-7.81,16.23-20.14s-7.26-20.08-16.23-20.08
			c-8.97,0-16.23,7.75-16.23,20.08S792.53,612.58,801.5,612.58z"/>
		<path class="st1" d="M871.29,604.17v-26.2c0-2.68-0.32-4.35-0.83-5.05c-0.9-1.09-1.66-1.66-3.52-1.66h-1.6v-1.15h9.78v13.42
			l-0.06,31.25h-3.77l-28.5-40.77v9.52l-0.06,23.39c0,2.68,0.26,4.35,0.83,5.05c0.89,1.09,1.66,1.6,3.51,1.6h1.6v1.21h-15.66v-1.21
			h1.66c1.79,0,2.62-0.51,3.45-1.6c0.58-0.7,0.83-2.36,0.83-5.05v-28.95c0-2.68-0.32-4.35-0.83-5.05c-0.89-1.09-1.66-1.66-3.51-1.66
			h-1.6v-1.15h7.03h2.75h3.96L871.29,604.17z"/>
	</g>
</g>
</svg>
