<svg width="25" height="25" viewBox="0 0 25 25" fill="none" xmlns="http://www.w3.org/2000/svg">
<g clip-path="url(#clip0_582_1021)">
<path d="M12.9468 24.9852C14.8586 24.7136 16.5345 22.7183 17.5891 19.7716C16.0646 19.4302 14.5088 19.2469 12.9468 19.2251V24.9852Z" fill="#CBAA5C"/>
<path d="M16.0011 24.5167C16.1141 24.4839 16.2267 24.451 16.3384 24.4148C16.4326 24.3845 16.5256 24.3517 16.6185 24.3192C16.7284 24.2813 16.838 24.2422 16.947 24.2008C17.04 24.1654 17.132 24.1279 17.2243 24.0904C17.3308 24.0456 17.437 24.0011 17.5422 23.9564C17.634 23.9161 17.7252 23.8737 17.8164 23.8312C17.9196 23.7825 18.0224 23.733 18.1242 23.6815C18.2137 23.6359 18.3029 23.5895 18.3924 23.5417C18.4925 23.488 18.592 23.4333 18.6908 23.377C18.7803 23.3264 18.8664 23.2755 18.9535 23.2232C19.0503 23.1636 19.1468 23.1041 19.2425 23.0445C19.3283 22.99 19.4138 22.9345 19.4982 22.8774C19.5925 22.8139 19.6854 22.7478 19.7779 22.6817C19.861 22.6221 19.9437 22.5628 20.0249 22.503C20.1143 22.4341 20.2059 22.3627 20.2956 22.2912C20.3752 22.2277 20.4546 22.1647 20.533 22.0994C20.6222 22.0252 20.7077 21.9485 20.7943 21.8717C20.8702 21.8043 20.9466 21.7375 21.0208 21.6683C21.1061 21.5887 21.1892 21.5062 21.2723 21.4244C21.3443 21.3533 21.4172 21.2833 21.4876 21.2104C21.5007 21.1969 21.5132 21.1823 21.5267 21.1683C20.5522 20.665 19.5257 20.2699 18.4652 19.9902C17.9137 21.7491 16.9322 23.3429 15.6097 24.627C15.6459 24.6177 15.6821 24.61 15.7184 24.6007C15.8139 24.5738 15.9077 24.5444 16.0011 24.5167Z" fill="#CBAA5C"/>
<path d="M25 12.957H19.6429C19.6226 15.0488 19.3191 17.1281 18.7408 19.1384C19.9201 19.4535 21.0583 19.9064 22.1316 20.4878C23.894 18.3637 24.9027 15.7155 25 12.957Z" fill="#CBAA5C"/>
<path d="M12.9468 12.0635H18.7493C18.7266 10.0458 18.4305 8.04042 17.8696 6.10205C16.2539 6.47053 14.6037 6.66731 12.9468 6.68912V12.0635Z" fill="#CBAA5C"/>
<path d="M12.9468 0.0354004V5.79553C14.5088 5.77349 16.0646 5.59046 17.5891 5.24903C16.5345 2.30232 14.8586 0.307012 12.9468 0.0354004Z" fill="#CBAA5C"/>
<path d="M12.9468 18.3314C14.6037 18.3535 16.2539 18.5503 17.8696 18.9187C18.4305 16.9804 18.7266 14.9748 18.7493 12.957H12.9468V18.3314Z" fill="#CBAA5C"/>
<path d="M22.1316 4.53271C21.0583 5.11412 19.9201 5.56702 18.7408 5.88205C19.3191 7.89241 19.6226 9.97171 19.6429 12.0634H25C24.9025 9.30522 23.8937 6.65696 22.1316 4.53271Z" fill="#CBAA5C"/>
<path d="M21.528 3.85487C21.5149 3.84156 21.5025 3.82716 21.4896 3.81341C21.4189 3.74055 21.3456 3.6703 21.2736 3.5994C21.1907 3.51759 21.108 3.4349 21.0225 3.35549C20.9486 3.28655 20.872 3.22132 20.7961 3.1526C20.7094 3.07581 20.6228 2.99836 20.5338 2.92419C20.4566 2.85896 20.3774 2.79656 20.2989 2.73395C20.2094 2.66152 20.1178 2.58953 20.0257 2.52037C19.945 2.4595 19.8632 2.4006 19.781 2.34169C19.6876 2.2745 19.5938 2.20752 19.4986 2.1436C19.4151 2.08732 19.3302 2.03234 19.2454 1.97845C19.1487 1.91628 19.0523 1.85541 18.9539 1.79651C18.8677 1.7448 18.7807 1.69375 18.6934 1.64423C18.5935 1.58707 18.4934 1.53166 18.3923 1.47755C18.3029 1.43283 18.2137 1.38418 18.1242 1.33946C18.0215 1.28754 17.9178 1.23758 17.8116 1.18849C17.7222 1.14595 17.6314 1.1045 17.5393 1.06414C17.4335 1.01723 17.3266 0.97491 17.2199 0.930186C17.1279 0.892663 17.0363 0.855575 16.9433 0.820233C16.8349 0.778782 16.7249 0.739949 16.615 0.701989C16.522 0.669265 16.4291 0.636759 16.3349 0.606216C16.2232 0.570001 16.1115 0.537059 15.9967 0.503898C15.9038 0.476628 15.8104 0.448921 15.7164 0.424051C15.6804 0.414233 15.6437 0.406598 15.6075 0.397217C16.93 1.68132 17.9113 3.27499 18.463 5.03403C19.5246 4.75435 20.5526 4.35904 21.528 3.85487Z" fill="#CBAA5C"/>
<path d="M0 12.0634H5.35718C5.37747 9.97171 5.68094 7.89241 6.25907 5.88205C5.0799 5.56724 3.94175 5.11433 2.86839 4.53271C1.10608 6.65674 0.0973002 9.30522 0 12.0634Z" fill="#CBAA5C"/>
<path d="M12.0532 24.9852V19.2251C10.4912 19.2471 8.93546 19.4302 7.41095 19.7716C8.46533 22.7183 10.1415 24.7136 12.0532 24.9852Z" fill="#CBAA5C"/>
<path d="M12.0532 12.957H6.25076C6.27345 14.9748 6.56928 16.9804 7.13039 18.9187C8.7461 18.55 10.3961 18.3533 12.0532 18.3314V12.957Z" fill="#CBAA5C"/>
<path d="M12.0532 0.0354004C10.1415 0.307012 8.46533 2.30232 7.41095 5.24903C8.93546 5.59067 10.4912 5.77371 12.0532 5.79553V0.0354004Z" fill="#CBAA5C"/>
<path d="M12.0532 6.68912C10.3963 6.66731 8.7461 6.47053 7.13039 6.10205C6.56928 8.04042 6.27345 10.0458 6.25076 12.0635H12.0532V6.68912Z" fill="#CBAA5C"/>
<path d="M9.38904 0.396729C9.35282 0.406109 9.31661 0.413745 9.28039 0.423126C9.18571 0.448433 9.09234 0.476576 8.99809 0.503846C8.88596 0.53657 8.77469 0.569513 8.66212 0.605291C8.56722 0.636052 8.47385 0.668776 8.38047 0.701283C8.27117 0.739897 8.16166 0.778294 8.05345 0.819308C7.96008 0.855087 7.86801 0.892174 7.77551 0.930134C7.66927 0.974858 7.5628 1.01958 7.45787 1.06409C7.3658 1.10445 7.27483 1.14677 7.18364 1.18931C7.08045 1.23796 6.97769 1.28748 6.87581 1.33897C6.78637 1.38457 6.69692 1.43125 6.60769 1.47881C6.50755 1.53248 6.40829 1.58746 6.30968 1.64374C6.22023 1.6937 6.13232 1.74497 6.04614 1.79733C5.94906 1.8558 5.85307 1.91623 5.75751 1.976C5.67156 2.03098 5.58626 2.08639 5.50183 2.14355C5.40758 2.20704 5.31464 2.27314 5.22214 2.33924C5.13902 2.3988 5.05634 2.45814 4.97497 2.51813C4.88356 2.58686 4.79629 2.65841 4.70423 2.72975C4.62482 2.79324 4.54475 2.85629 4.46709 2.92195C4.37764 2.99569 4.29277 3.07205 4.2066 3.1484C4.13024 3.21647 4.05323 3.28257 3.97862 3.35304C3.89376 3.43223 3.81107 3.51448 3.72817 3.59607C3.65618 3.66719 3.58288 3.73744 3.51219 3.81053C3.49932 3.82405 3.48688 3.83889 3.47336 3.85263C4.44767 4.35615 5.47434 4.75124 6.53482 5.03092C7.08634 3.27297 8.06719 1.68018 9.38904 0.396729Z" fill="#CBAA5C"/>
<path d="M3.72619 21.4211C3.80931 21.5029 3.892 21.5856 3.9773 21.6652C4.05147 21.7339 4.12783 21.7991 4.20397 21.8679C4.29058 21.9449 4.37719 22.0221 4.4662 22.0963C4.54343 22.1611 4.62218 22.2237 4.70116 22.2865C4.7906 22.3589 4.87983 22.4309 4.97452 22.5005C5.05502 22.561 5.13683 22.6194 5.21864 22.6794C5.31201 22.7464 5.40626 22.8134 5.50138 22.8777C5.58493 22.934 5.6698 22.989 5.75466 23.0431C5.85131 23.1051 5.94774 23.1659 6.04613 23.2248C6.1323 23.2768 6.21935 23.3276 6.30661 23.3773C6.40653 23.4345 6.50667 23.4899 6.60768 23.5438C6.6969 23.5885 6.78635 23.6372 6.8758 23.6819C6.97855 23.7338 7.08218 23.7838 7.18842 23.8331C7.27787 23.8752 7.36862 23.9166 7.46069 23.9572C7.5665 24.0041 7.67318 24.0464 7.78008 24.0911C7.87214 24.1287 7.96377 24.1658 8.05671 24.2011C8.16513 24.2428 8.27509 24.2816 8.38504 24.3196C8.47798 24.3521 8.57091 24.3848 8.66516 24.4151C8.77686 24.4513 8.88856 24.4845 9.00331 24.5174C9.09625 24.5447 9.18962 24.5724 9.28343 24.5975C9.31965 24.6073 9.3563 24.615 9.39251 24.6243C8.07001 23.34 7.08872 21.7463 6.53699 19.9873C5.47651 20.2672 4.44984 20.6623 3.47552 21.166C3.48861 21.1793 3.50105 21.1937 3.51414 21.2075C3.58112 21.2799 3.65333 21.3502 3.72619 21.4211Z" fill="#CBAA5C"/>
<path d="M2.86839 20.4878C3.94175 19.9064 5.0799 19.4535 6.25907 19.1384C5.68094 17.1281 5.37747 15.0488 5.35718 12.957H0C0.0975184 15.7153 1.10608 18.3635 2.86839 20.4878Z" fill="#CBAA5C"/>
</g>
<defs>
<clipPath id="clip0_582_1021">
<rect width="25" height="25" fill="white"/>
</clipPath>
</defs>
</svg>
